<?xml version="1.0" encoding="UTF-8" standalone="no"?>
<!-- Created with Inkscape (http://www.inkscape.org/) -->

<svg
   width="176.60023mm"
   height="175.88979mm"
   viewBox="0 0 176.60023 175.88979"
   version="1.1"
   id="svg303"
   xml:space="preserve"
   inkscape:version="1.2 (dc2aedaf03, 2022-05-15)"
   sodipodi:docname="Animal silhouettes.svg"
   xmlns:inkscape="http://www.inkscape.org/namespaces/inkscape"
   xmlns:sodipodi="http://sodipodi.sourceforge.net/DTD/sodipodi-0.dtd"
   xmlns="http://www.w3.org/2000/svg"
   xmlns:svg="http://www.w3.org/2000/svg"
   xmlns:rdf="http://www.w3.org/1999/02/22-rdf-syntax-ns#"
   xmlns:cc="http://creativecommons.org/ns#"
   xmlns:dc="http://purl.org/dc/elements/1.1/"><title
     id="title367">Animal silhouettes</title><sodipodi:namedview
     id="namedview305"
     pagecolor="#ffffff"
     bordercolor="#000000"
     borderopacity="0.25"
     inkscape:showpageshadow="2"
     inkscape:pageopacity="0.0"
     inkscape:pagecheckerboard="0"
     inkscape:deskcolor="#d1d1d1"
     inkscape:document-units="mm"
     showgrid="false"
     inkscape:zoom="0.36257716"
     inkscape:cx="576.42903"
     inkscape:cy="297.86763"
     inkscape:window-width="1920"
     inkscape:window-height="1017"
     inkscape:window-x="1912"
     inkscape:window-y="-8"
     inkscape:window-maximized="1"
     inkscape:current-layer="layer1" /><defs
     id="defs300" /><g
     inkscape:label="Lager 1"
     inkscape:groupmode="layer"
     id="layer1"
     transform="translate(-12.434723,-13.946134)"><path
       style="fill:#000000;stroke-width:0.0938862"
       d="m 158.98603,62.609691 c -0.53683,-0.14412 -0.73087,-0.35358 -0.64813,-0.69963 0.10767,-0.45035 0.30941,-0.74484 0.78496,-1.14583 0.88608,-0.74716 1.04091,-1.31742 0.6121,-2.2545 -0.32662,-0.71378 -0.47408,-1.3644 -0.80587,-3.55555 -0.16029,-1.05857 -0.47917,-2.95977 -0.70861,-4.22489 -0.22944,-1.26512 -0.4437,-2.58565 -0.47614,-2.93451 -0.0639,-0.68757 -0.20388,-0.977 -0.4304,-0.89008 -0.0792,0.0304 -0.31889,0.37207 -0.53263,0.75927 -0.21374,0.38721 -0.84065,1.30925 -1.39313,2.04897 -1.21071,1.62103 -1.71161,2.43284 -2.56779,4.16155 -0.51991,1.04976 -0.68884,1.50267 -0.83902,2.24948 -0.10343,0.51429 -0.29679,1.27477 -0.42971,1.68996 -0.42793,1.3367 -0.34078,1.9783 0.4009,2.95123 0.34848,0.45714 0.4063,0.86984 0.16926,1.20825 -0.24353,0.34769 -1.05907,0.52675 -2.38972,0.5247 -1.21955,-0.002 -3.16433,-0.17918 -3.54246,-0.32294 -0.51022,-0.19399 -0.38762,-0.65822 0.39345,-1.48987 0.32947,-0.35079 0.70984,-0.85648 0.84527,-1.12374 0.24654,-0.48652 0.27843,-0.67279 0.5164,-3.0158 0.0565,-0.55608 0.40958,-2.32324 0.80533,-4.0303 1.60085,-6.90538 2.57558,-11.78364 2.64555,-13.2403 0.0561,-1.16801 -0.0382,-3.18066 -0.15817,-3.37475 -0.0567,-0.0918 -0.25238,-0.0394 -0.83478,0.22351 -1.35778,0.61306 -1.77759,0.72823 -2.84058,0.77928 -1.08071,0.0519 -1.53797,-0.0389 -1.8323,-0.36407 -0.14729,-0.1627 -0.18102,-0.38263 -0.2089,-1.36205 -0.0383,-1.34465 -0.0592,-1.37778 -0.93044,-1.47271 -0.53452,-0.0583 -1.33596,-0.41485 -1.71208,-0.7618 -0.12909,-0.11908 -0.32757,-0.26423 -0.44106,-0.32255 -0.17505,-0.09 -0.22897,-0.0739 -0.35559,0.10589 -0.0821,0.11656 -0.27133,0.38687 -0.42054,0.60069 -0.35264,0.5053 -1.09932,0.87755 -1.89922,0.94682 -0.98484,0.0853 -1.10378,0.19042 -2.63147,2.32598 -0.91171,1.2745 -1.29138,1.67529 -1.54141,1.62713 -0.31405,-0.0605 -0.23316,-0.3025 0.45668,-1.36643 1.98506,-3.06153 1.96665,-3.03035 1.78956,-3.03035 -0.0445,0 -0.45949,0.13398 -0.92228,0.29772 -0.93533,0.33095 -1.97477,0.41191 -2.37716,0.18516 -0.318,-0.17921 -0.15881,-0.28515 0.74464,-0.49552 1.10747,-0.25787 1.91029,-0.72834 1.73282,-1.01547 -0.0245,-0.0398 -0.24651,-0.0992 -0.4932,-0.13219 -0.28344,-0.0379 -0.97884,-0.32649 -1.88938,-0.78423 -1.34588,-0.6766 -1.48709,-0.7735 -2.14235,-1.47004 -1.5839,-1.68369 -2.28005,-3.20896 -2.2833,-5.00273 -0.002,-0.99569 0.24522,-1.72792 1.11613,-3.30838 0.36648,-0.66507 0.66597,-1.30909 0.66555,-1.43116 0,-0.12208 0.12488,-0.72894 0.27844,-1.34859 0.15357,-0.61965 0.32668,-1.37326 0.38468,-1.67468 0.1164,-0.60492 0.84671,-2.12177 1.3446,-2.79274 0.35681,-0.48083 0.74106,-0.69808 1.50665,-0.85184 0.44478,-0.0893 0.55277,-0.0816 0.75989,0.0541 0.57972,0.37984 0.47785,0.99471 -0.2893,1.74604 -0.95177,0.93215 -1.16715,1.63168 -1.16831,3.79457 -0.001,1.62508 -0.095,2.23124 -0.56793,3.65806 -0.50627,1.52734 -0.49103,1.95197 0.094,2.6183 0.64058,0.72959 1.75574,0.93477 2.69743,0.49632 0.34423,-0.16028 0.9876,-0.70464 2.20633,-1.8668 2.16598,-2.06543 2.30874,-2.22101 2.77654,-3.02587 0.87622,-1.50753 2.35087,-2.4791 3.76858,-2.48293 0.57604,-0.002 2.50753,0.33524 3.61521,0.63038 l 0.92902,0.24755 3.48363,-0.16899 c 2.89075,-0.14023 3.69025,-0.15013 4.6976,-0.0582 1.37477,0.1255 1.70723,0.23237 2.03161,0.65313 0.64283,0.83379 0.43595,0.74286 2.47967,1.09004 3.90566,0.66348 4.81597,0.6636 6.74385,8.5e-4 1.61617,-0.5556 2.34672,-0.70232 3.5068,-0.7043 1.6034,-0.003 2.84838,0.32673 4.65736,1.23254 3.21283,1.60874 5.27593,3.74534 6.9221,7.16865 1.50557,3.13095 1.89204,4.82061 1.68887,7.38395 -0.27333,3.44851 0.49811,7.01171 2.1167,9.77675 0.23505,0.40152 0.402,0.77108 0.371,0.82123 -0.12047,0.19492 -0.33159,0.068 -0.87729,-0.52758 -0.71583,-0.78121 -1.2971,-1.9435 -1.75647,-3.51223 -0.32857,-1.12204 -0.46729,-1.39444 -0.62817,-1.23355 -0.0402,0.0402 -0.17597,0.69041 -0.30177,1.44498 -0.43625,2.6167 -0.82807,4.08416 -1.96154,7.34642 -0.81138,2.33526 -1.14849,4.34104 -1.07004,6.36683 0.0478,1.23527 0.18413,1.774 0.63718,2.51845 0.41358,0.67958 0.49621,1.08733 0.30115,1.48599 -0.2884,0.58942 -0.60389,0.67501 -2.22784,0.60439 -0.90589,-0.0394 -1.65525,-0.0226 -2.10055,0.047 -0.84269,0.13172 -0.99396,0.0909 -1.10573,-0.29832 l -0.087,-0.30292 -1.10126,0.0335 c -1.21345,0.037 -1.37949,-0.0184 -1.37949,-0.45985 0,-0.39772 0.0883,-0.55197 0.41039,-0.71667 0.61114,-0.31252 0.9932,-0.70217 1.29975,-1.32553 0.30832,-0.62695 0.30841,-0.62755 0.29503,-1.98979 -0.0236,-2.40384 -0.47071,-5.18008 -0.9767,-6.06444 -0.38277,-0.66902 -1.88393,-2.24559 -2.38446,-2.50425 -0.33612,-0.1737 -0.61827,-0.2052 -2.39947,-0.26795 -2.93498,-0.10339 -4.13392,-0.38037 -6.09467,-1.40803 -0.58947,-0.30895 -1.13063,-0.53914 -1.20257,-0.51154 -0.0719,0.0276 -0.25383,0.32153 -0.4042,0.65316 -0.64454,1.42152 -0.86881,3.14578 -0.73996,5.68909 0.0432,0.85201 0.10324,2.47859 0.13351,3.61462 0.0311,1.16794 0.11938,2.45048 0.20312,2.95143 0.14007,0.83794 0.16833,0.90407 0.52164,1.22053 0.45124,0.40416 0.82332,1.10229 0.82332,1.54478 0,0.40863 -0.3325,0.81921 -0.87682,1.0827 -0.37193,0.18005 -0.56174,0.1946 -2.46231,0.18875 -1.39509,-0.004 -2.20877,-0.0464 -2.52264,-0.13071 z"
       id="path359" /><path
       style="fill:#000000;stroke-width:0.0938862"
       d="m 106.40311,82.462141 c -0.0398,-0.0644 0.2774,-0.45871 0.78762,-0.97899 1.21114,-1.23502 1.65109,-2.32056 1.29036,-3.18388 -0.13603,-0.32559 -0.1363,-0.38428 -0.003,-0.64208 0.10873,-0.21025 0.12966,-0.40885 0.0808,-0.76686 -0.10071,-0.73852 -0.55095,-2.51919 -1.21416,-4.8019 -0.33006,-1.13602 -0.68905,-2.42461 -0.79777,-2.86353 -0.27041,-1.09164 -0.29125,-1.1342 -0.39095,-0.79803 -0.13748,0.46357 -0.4302,2.3637 -0.83165,5.39846 -0.45627,3.44917 -0.64311,4.72121 -0.76117,5.18219 -0.0996,0.38884 -0.47065,0.73265 -0.79075,0.73265 -0.32694,0 -0.61302,0.29206 -0.78236,0.79872 -0.18752,0.56104 -0.46512,0.74502 -1.42655,0.94549 -0.72754,0.15169 -1.701712,0.1476 -1.741079,-0.007 -0.01313,-0.0516 0.313539,-0.34176 0.725919,-0.64472 1.73184,-1.2723 2.3658,-2.51167 2.8879,-5.64567 0.43659,-2.62073 0.47422,-3.65266 0.36808,-10.09621 -0.061,-3.70057 -0.0748,-3.92831 -0.27098,-4.4596 -0.51863,-1.40454 -1.42655,-2.5625 -3.43278,-4.37819 -0.722867,-0.65423 -1.485815,-1.4147 -1.695426,-1.68996 -0.449522,-0.59029 -1.738759,-2.74379 -2.2296,-3.72425 -0.469812,-0.93845 -1.934276,-4.47933 -2.258474,-5.4607 -0.333562,-1.00971 -0.641945,-1.33224 -1.423255,-1.48858 -0.770197,-0.15411 -1.387047,-0.49166 -2.171888,-1.18847 -1.345402,-1.19449 -1.98927,-1.41322 -3.915956,-1.33029 -0.72307,0.0311 -2.124445,0.14152 -3.114171,0.24532 -1.985562,0.20825 -2.918672,0.18053 -3.254083,-0.0967 l -0.204051,-0.16865 0.201787,-0.1444 c 0.201176,-0.14398 0.201251,-0.14547 0.02346,-0.49417 -0.118451,-0.23235 -0.178306,-0.54542 -0.178306,-0.93265 v -0.5829 l 0.515541,-0.4595 c 0.53288,-0.47495 0.858483,-0.69138 3.824644,-2.54234 2.0271,-1.26497 3.93488,-2.59515 4.62178,-3.2225 0.837848,-0.76521 1.122459,-1.56989 1.273943,-3.6018 0.126723,-1.69976 0.21295,-2.07833 0.705686,-3.09825 1.04648,-2.16613 3.048254,-4.09314 5.535455,-5.32869 1.698211,-0.84362 3.795104,-1.51515 4.220904,-1.35176 0.2542,0.0975 0.0998,0.20764 -0.674155,0.48065 -1.790857,0.63174 -3.486823,1.71292 -4.700981,2.99689 -1.150954,1.21712 -1.658114,2.16874 -2.00433,3.76086 -0.101702,0.46769 -0.474245,2.07556 -0.827873,3.57305 -0.821515,3.47883 -0.792134,3.29565 -0.565096,3.52269 0.201471,0.20147 0.674803,0.24512 1.061933,0.0979 0.258204,-0.0982 1.38709,-1.39996 2.034361,-2.34596 0.481976,-0.70441 0.981585,-1.03031 1.310034,-0.85453 0.137904,0.0738 0.192146,0.19641 0.192146,0.43431 0,0.45802 0.147158,0.69467 0.431964,0.69467 0.334432,0 0.600786,0.16358 0.600786,0.36896 0,0.50655 -0.40737,1.41406 -0.981433,2.18636 -0.681964,0.91746 -1.084068,1.64985 -1.084068,1.97451 0,0.14214 0.198061,0.41114 0.572597,0.77769 0.744836,0.72894 0.944593,1.05211 1.435632,2.32252 0.9513,2.4612 1.674817,3.52831 2.748793,4.05418 0.8486,0.41553 1.57117,0.43129 2.5144,0.0548 0.41047,-0.16382 1.21464,-0.41861 1.78704,-0.56619 2.33989,-0.60332 4.5253,-0.76427 9.90658,-0.72963 4.32046,0.0278 4.47173,0.0146 7.32313,-0.6384 0.80038,-0.1833 1.83548,-0.41789 2.30022,-0.5213 3.07087,-0.68334 7.36875,0.0279 10.34281,1.71169 0.79715,0.4513 2.42617,1.99864 3.00361,2.85299 0.74037,1.09544 1.16531,2.74827 1.67501,6.51512 0.38765,2.86486 0.58534,3.85179 1.36538,6.81674 0.52304,1.98809 1.0291,4.13415 1.0291,4.36412 0,0.0525 -0.0562,0.0955 -0.12484,0.0955 -0.30505,0 -1.80804,-3.15265 -2.52602,-5.29858 -0.3883,-1.16057 -0.48354,-1.58137 -0.55251,-2.44105 -0.0458,-0.57131 -0.14625,-1.24998 -0.22313,-1.50817 -0.18097,-0.60764 -0.53352,-1.22052 -0.7021,-1.22052 -0.0891,0 -0.26495,0.4412 -0.53692,1.34688 -0.55737,1.85612 -0.78847,3.05395 -0.84918,4.40153 -0.0761,1.68976 -0.0979,1.64981 2.13457,3.92188 1.01473,1.03275 1.9719,2.06785 2.12704,2.30022 0.67743,1.01469 0.78467,1.73931 0.50025,3.3799 -0.15926,0.91865 -0.22114,1.80581 -0.28482,4.08406 -0.0512,1.83276 -0.13307,3.1886 -0.22103,3.66157 -0.0768,0.4131 -0.1419,0.9441 -0.14463,1.18001 -0.009,0.75886 -0.24369,1.31688 -0.9089,2.15929 -0.34385,0.43543 -0.81071,1.1719 -1.03748,1.63659 -0.22677,0.4647 -0.48477,0.87365 -0.57333,0.90879 -0.0886,0.0351 -0.47789,0.0668 -0.86517,0.0703 -0.92816,0.009 -1.31013,-0.17369 -1.49691,-0.71399 -0.20338,-0.58828 -0.0783,-0.76305 0.88228,-1.23261 1.74067,-0.85091 2.32808,-1.90131 2.68789,-4.80647 0.13576,-1.0961 0.16001,-3.74955 0.0532,-5.82095 -0.0673,-1.30523 -0.11407,-1.62572 -0.29702,-2.03566 -0.31816,-0.71291 -1.21909,-1.55406 -2.80549,-2.61934 -0.76273,-0.51218 -1.44088,-0.96965 -1.507,-1.01659 -0.0661,-0.0469 -0.18934,-0.0588 -0.27382,-0.0264 -0.21469,0.0824 -0.19772,0.60311 0.0392,1.20429 0.27625,0.70085 0.33072,1.50826 0.14948,2.2157 -0.18102,0.70662 -0.4594,1.27363 -1.23368,2.51273 -0.75043,1.20097 -1.43251,2.56539 -2.38269,4.76626 -0.84552,1.95848 -1.38179,2.9668 -1.8261,3.43355 -0.30422,0.31957 -0.89299,0.67245 -1.12197,0.67245 -0.22175,0 -0.61183,0.49839 -0.81303,1.03874 -0.29079,0.781 -0.70768,1.13282 -0.99814,0.84236 -0.0498,-0.0498 -0.40092,-0.15582 -0.7803,-0.23562 -0.73487,-0.15459 -0.85669,-0.20134 -0.85669,-0.32882 0,-0.0443 0.34855,-0.35406 0.77456,-0.68835 0.42601,-0.33428 1.41002,-1.2567 2.1867,-2.04982 l 1.41213,-1.44202 0.44882,-1.06821 c 0.24685,-0.58751 0.73645,-1.85498 1.08801,-2.81659 0.35156,-0.96161 0.80175,-2.12862 1.00044,-2.59336 l 0.36124,-0.84497 -0.008,-1.4083 c -0.008,-1.51811 -0.20022,-2.83042 -0.50061,-3.41867 -0.18413,-0.36057 -0.93975,-1.09986 -1.84215,-1.80232 -0.36348,-0.28296 -0.70223,-0.66629 -0.97845,-1.10721 -0.9191,-1.46715 -1.37206,-2.11142 -1.60706,-2.28584 l -0.24572,-0.18237 -1.16258,0.37636 c -0.63942,0.207 -1.66957,0.49458 -2.28922,0.63906 -1.06002,0.24717 -1.25431,0.26276 -3.28602,0.26372 -1.73786,8.5e-4 -2.59925,-0.0487 -4.41266,-0.25385 -4.07314,-0.46069 -5.93269,-0.50803 -6.15499,-0.15669 -0.0471,0.0744 -0.0859,0.9591 -0.0863,1.96603 0,1.00693 -0.0496,3.19664 -0.10926,4.86602 -0.12661,3.54099 -0.0769,4.24467 0.49515,7.00583 0.91224,4.40337 1.20665,6.24249 1.08005,6.74688 -0.0291,0.11602 -0.18277,0.35636 -0.34144,0.53408 -0.37175,0.41639 -0.42164,0.63893 -0.27313,1.21838 0.0758,0.29559 0.0881,0.50602 0.0329,0.56061 -0.0486,0.0481 -0.61649,0.15376 -1.26195,0.23487 -0.64547,0.0811 -1.32768,0.17113 -1.51602,0.20006 -0.21049,0.0323 -0.36813,0.011 -0.40911,-0.0553 z"
       id="path357" /><path
       style="fill:#000000;stroke-width:0.0938862"
       d="m 38.197425,82.505601 c -0.552183,-0.15425 -1.880861,-0.88958 -2.171931,-1.202 -0.21675,-0.23266 -0.221296,-0.4385 -0.02647,-1.19895 0.204065,-0.79653 0.128092,-1.21855 -0.402307,-2.23482 -0.407136,-0.78009 -0.443962,-0.90527 -0.437117,-1.48584 0.0051,-0.43293 0.100571,-0.92799 0.301027,-1.56104 0.161451,-0.50988 0.359785,-1.37599 0.440743,-1.92467 0.08096,-0.54869 0.289675,-1.73697 0.463819,-2.64063 0.528685,-2.74343 1.196985,-6.76171 1.256982,-7.55785 0.03112,-0.4131 0.09103,-0.80429 0.133096,-0.86932 0.04207,-0.065 0.09055,-0.36076 0.107727,-0.6572 0.140086,-2.4171 0.302719,-3.264 0.899861,-4.68592 0.1733,-0.41266 0.01221,-0.59432 -0.527024,-0.59432 -0.643879,0 -0.845094,-0.24436 -1.12098,-1.36135 -0.272234,-1.1022 -0.282603,-1.33578 -0.08974,-2.02157 0.53189,-1.89128 0.57676,-2.21645 0.270812,-1.96254 -0.100798,0.0837 -0.214945,0.0756 -0.490004,-0.0344 -0.197223,-0.0789 -0.86312,-0.23372 -1.479768,-0.34402 -2.61288,-0.46735 -4.171235,-1.48657 -5.960149,-3.89812 -0.438739,-0.59145 -0.83695,-1.00798 -1.236993,-1.2939 -0.324478,-0.23192 -0.810575,-0.65913 -1.080212,-0.94937 -0.269637,-0.29024 -0.523128,-0.53094 -0.563318,-0.5349 -0.04019,-0.004 -0.41106,-0.0204 -0.824158,-0.0366 -0.749271,-0.0293 -2.904574,-0.46712 -3.115686,-0.63288 -0.06123,-0.0481 -0.138408,-0.21072 -0.171511,-0.36144 -0.07742,-0.3525 -0.460108,-0.65186 -0.833299,-0.65186 -0.203636,0 -0.37371,-0.0858 -0.558613,-0.28166 -0.22784,-0.24139 -0.335166,-0.28198 -0.750787,-0.28395 -0.763181,-0.004 -1.263361,-0.16059 -1.931118,-0.60606 -0.34063,-0.22725 -0.862428,-0.5033 -1.159555,-0.61345 -0.600896,-0.22276 -0.763263,-0.42941 -0.708169,-0.90133 0.0204,-0.17485 0.01959,-0.31791 -0.0018,-0.31791 -0.02143,0 -0.236509,0.0702 -0.477956,0.15592 -0.598579,0.21259 -0.8553,0.12837 -1.106935,-0.36316 -0.113476,-0.22166 -0.229178,-0.51408 -0.257115,-0.64981 -0.04184,-0.20328 -0.146143,-0.27776 -0.591712,-0.42249 l -0.54092,-0.1757 -0.02778,-0.63415 -0.02778,-0.63416 -0.358902,0.0574 c -0.536226,0.0858 -0.643868,-0.12197 -0.597156,-1.15233 0.0292,-0.64433 0.09034,-0.92652 0.289597,-1.33699 0.499938,-1.02984 2.34237,-2.64356 3.242806,-2.84025 0.214319,-0.0468 0.870288,-0.32656 1.457703,-0.62166 l 1.068033,-0.53653 1.419956,-0.013 c 1.944052,-0.0178 3.355579,0.25621 4.084011,0.79286 0.174293,0.12841 0.59678,0.38102 0.938862,0.56135 1.21402,0.64001 1.847314,1.11518 2.596614,1.94827 1.517829,1.68755 1.732077,1.83125 2.835986,1.90214 0.934706,0.06 2.402449,-0.27621 5.235205,-1.19928 1.2393,-0.40384 2.612387,-0.80845 3.051307,-0.89915 0.438916,-0.0907 0.855675,-0.20977 0.92613,-0.26462 0.270446,-0.21055 1.749458,-0.4442 2.782379,-0.43955 0.996379,0.004 1.0473,-0.005 1.445895,-0.27679 0.458319,-0.31221 0.807406,-0.34992 1.621965,-0.17522 0.374526,0.0803 0.6014,0.079 0.930807,-0.005 0.360513,-0.0924 0.570979,-0.0842 1.221295,0.0476 0.63126,0.12791 1.107283,0.14955 2.421509,0.11009 0.908023,-0.0273 1.764993,-0.01 1.926193,0.0388 0.159719,0.0483 0.78224,0.12433 1.383374,0.16887 1.030881,0.0764 1.246904,0.13229 3.802398,0.98431 2.848618,0.94975 4.219168,1.54309 5.619898,2.433 1.014146,0.6443 1.653834,0.85304 2.40532,0.7849 0.940285,-0.0853 1.5206,-0.4251 2.534193,-1.48401 l 0.902401,-0.94276 0.08341,-1.05035 c 0.116815,-1.4711 0.07262,-2.76502 -0.103622,-3.034 -0.07787,-0.11884 -0.141577,-0.34309 -0.141577,-0.49833 0,-0.59851 -0.879304,-2.68283 -1.165544,-2.76285 -0.155991,-0.0436 -0.162662,-0.0708 -0.05049,-0.20599 0.111723,-0.13462 0.104268,-0.174 -0.05498,-0.29043 -0.101326,-0.0741 -0.192706,-0.22793 -0.203068,-0.34191 -0.03854,-0.42394 -0.22933,-1.34625 -0.355733,-1.71966 -0.137361,-0.40577 -0.233428,-1.52213 -0.265116,-3.0808 -0.0149,-0.73321 0.01317,-0.97319 0.131847,-1.12663 0.122471,-0.15836 0.153957,-0.48175 0.167671,-1.7221 l 0.01689,-1.52713 0.372077,-0.77309 c 0.204644,-0.4252 0.372443,-0.86666 0.372887,-0.98103 0.0011,-0.24239 0.279838,-0.4261 0.469198,-0.30907 0.08287,0.0512 0.256266,0.007 0.480409,-0.12172 0.346943,-0.19968 0.352901,-0.1999 0.55094,-0.0207 0.21365,0.19335 0.524984,0.21429 1.39193,0.0936 0.472474,-0.0658 0.523373,-0.0515 1.009278,0.28318 0.377453,0.25996 0.511709,0.41101 0.511709,0.57571 0,0.14015 0.05479,0.22328 0.147158,0.22328 0.09749,0 0.129533,0.0555 0.09494,0.16451 -0.03817,0.12026 0.07184,0.24916 0.409024,0.47925 0.977252,0.66688 1.093614,1.06666 0.325173,1.11722 -0.7277,0.0479 -0.986223,0.13118 -1.32365,0.42651 -0.45136,0.39504 -1.116459,1.30313 -1.234942,1.68611 -0.468915,1.51575 -0.577512,2.01214 -0.651951,2.9801 -0.07638,0.99323 -0.06586,1.13608 0.131382,1.78384 0.117929,0.38728 0.301732,1.08439 0.408459,1.54913 0.134306,0.58482 0.280949,0.9606 0.476313,1.22052 0.714742,0.95094 1.453627,3.02422 1.702686,4.77766 0.120549,0.84868 0.116798,1.2049 -0.02459,2.33555 -0.09161,0.73259 -0.09035,1.12857 0.0062,1.97161 0.06649,0.58019 0.09997,1.24502 0.0744,1.47739 -0.05644,0.51286 -0.754888,2.19831 -1.22986,2.96783 -0.220644,0.35747 -0.382837,0.76956 -0.447603,1.13723 -0.0952,0.54046 -0.136428,0.60693 -0.657643,1.06027 -0.617837,0.53738 -0.79884,0.82277 -0.892228,1.40679 -0.04391,0.27458 -0.220441,0.60021 -0.577956,1.06608 -0.595506,0.77598 -1.243476,2.07337 -1.507276,3.0179 -0.546516,1.95679 -1.545851,3.36291 -2.973729,4.18421 -0.258186,0.14851 -0.650316,0.48129 -0.871399,0.73951 -0.739946,0.86426 -2.608899,1.60815 -3.672713,1.46184 -0.376087,-0.0517 -0.532634,-0.0134 -1.157209,0.28319 -0.970515,0.4609 -1.774482,0.52158 -3.22653,0.24353 -0.572771,-0.10967 -1.172634,-0.19941 -1.333032,-0.19941 -0.160397,0 -0.633702,-0.10806 -1.051785,-0.24013 -0.418086,-0.13207 -0.909076,-0.22713 -1.091098,-0.21124 l -0.330943,0.0289 -0.545423,1.64301 c -0.299984,0.90366 -0.593257,1.87538 -0.651718,2.15939 -0.07083,0.34407 -0.09417,1.48754 -0.06996,3.42685 0.03534,2.82954 0.04323,2.93267 0.28405,3.70851 0.136243,0.43892 0.522561,1.74436 0.858479,2.90098 0.361911,1.2461 0.987799,3.06316 1.536114,4.4596 0.508945,1.29616 1.064769,2.73111 1.235169,3.18878 0.252526,0.67825 0.454647,1.01215 1.093071,1.80577 0.975614,1.21277 1.160524,1.32111 1.999124,1.17124 0.672888,-0.12025 0.926553,-0.069 1.428777,0.2886 0.235621,0.16778 0.356993,0.18765 0.823644,0.13486 0.760605,-0.0861 1.317969,0.075 1.835274,0.53037 0.396522,0.34903 0.701779,0.78387 0.701779,0.99968 0,0.20074 -0.312595,0.38691 -0.649659,0.38691 -0.195024,0 -0.742253,0.0812 -1.216065,0.18033 -0.686265,0.14365 -0.980365,0.1628 -1.446018,0.0942 -0.321498,-0.0474 -1.323895,-0.1112 -2.227553,-0.14182 -0.903654,-0.0306 -1.779609,-0.0972 -1.946561,-0.14788 -0.368113,-0.11183 -0.593561,-0.42516 -0.803701,-1.11704 -0.214377,-0.70581 -0.696981,-1.25372 -1.27274,-1.44496 -0.471573,-0.15663 -0.971366,-0.57209 -1.184679,-0.98478 -0.196641,-0.38043 -0.480489,-1.38467 -1.076372,-3.80811 -1.028529,-4.18302 -1.312288,-5.255 -1.594299,-6.02296 -0.154574,-0.42093 -0.36597,-1.09794 -0.469766,-1.50447 -0.234372,-0.91795 -0.630405,-1.87601 -1.079832,-2.61229 -0.330081,-0.54075 -0.453046,-0.88922 -0.712293,-2.01856 -0.06519,-0.284 -0.24264,-0.83138 -0.394326,-1.21639 -0.498796,-1.26608 -0.460026,-1.77775 0.218741,-2.88673 0.668704,-1.09253 1.302739,-2.50692 1.302739,-2.90611 0,-0.18344 -0.344055,-0.15452 -0.487579,0.041 -0.06747,0.0919 -0.608544,0.57325 -1.202375,1.06964 -1.654494,1.38301 -2.476732,2.48154 -3.282627,4.38568 -0.249222,0.58885 -0.566235,1.13114 -0.911869,1.55987 -0.643417,0.7981 -0.948223,1.4351 -1.392664,2.91047 -0.458496,1.52205 -0.573544,2.10825 -0.747245,3.80743 -0.08154,0.79762 -0.212599,1.80212 -0.291254,2.23223 -0.17358,0.94922 -0.309816,3.22168 -0.331426,5.52827 -0.01561,1.66705 -0.0099,1.72237 0.228272,2.20919 0.323999,0.66223 0.826571,1.23609 1.352428,1.54426 0.235842,0.13821 0.949412,0.38581 1.585704,0.55023 0.636296,0.16442 1.258749,0.36567 1.383232,0.44723 0.12448,0.0816 0.338303,0.37234 0.475157,0.64616 l 0.248828,0.49786 -0.201417,0.1643 c -0.290871,0.23727 -2.05607,0.2318 -2.90362,-0.009 -0.673295,-0.19129 -0.844679,-0.17592 -0.844679,0.0757 0,0.0926 -0.06045,0.21862 -0.134344,0.27994 -0.216779,0.17992 -1.084665,0.20527 -1.64721,0.0481 z"
       id="path355" /><path
       style="fill:#000000;stroke-width:0.0938862"
       d="m 88.350398,112.18105 c -0.197862,-0.0884 -0.357933,-0.25584 -0.44596,-0.46651 -0.307502,-0.73597 -0.05874,-1.12769 0.423026,-0.66613 0.218876,0.20969 0.32,0.24472 0.556569,0.19276 0.331355,-0.0728 0.66693,-0.4487 0.66693,-0.74712 0,-0.61676 -0.823655,-0.56786 -1.900389,0.11283 -0.19811,0.12525 -0.295398,0.13889 -0.422486,0.0593 -0.307421,-0.19267 -0.24208,-0.46156 0.248339,-1.02198 0.369792,-0.42258 0.564144,-0.77838 0.907919,-1.66209 0.277174,-0.71251 0.404638,-1.15719 0.347951,-1.21388 -0.04921,-0.0492 -0.242139,-0.11423 -0.428749,-0.14452 -0.38917,-0.0631 -0.347849,-0.15301 -0.582079,1.26591 -0.214941,1.30207 -0.365853,1.52485 -1.318888,1.9469 -1.311039,0.58061 -2.807211,0.75482 -3.942658,0.45907 -0.688522,-0.17933 -0.983182,-0.43511 -0.983182,-0.85341 0,-0.3846 0.197063,-0.50331 0.835499,-0.50331 0.531644,0 0.666681,-0.13538 0.666681,-0.66833 0,-0.16782 0.08556,-0.4819 0.190147,-0.69794 0.104581,-0.21603 0.214789,-0.68354 0.244908,-1.03891 0.03013,-0.35537 0.116386,-0.86738 0.191702,-1.1378 0.138088,-0.4958 0.112859,-0.68191 -0.09245,-0.68191 -0.07501,0 -0.113295,-0.2086 -0.116304,-0.63373 -0.0032,-0.45567 -0.09952,-0.93711 -0.342703,-1.71343 l -0.338214,-1.07969 0.07599,-1.17358 c 0.04179,-0.645469 0.142467,-1.469319 0.223717,-1.830779 0.08125,-0.36147 0.148456,-0.72956 0.149354,-0.81799 0.0039,-0.39007 0.417324,-1.20884 0.937975,-1.85786 0.748658,-0.93324 0.941382,-1.45611 0.941382,-2.55401 0,-0.47141 -0.02803,-0.82907 -0.0623,-0.79481 -0.03428,0.0343 -0.138265,0.27802 -0.231114,0.54167 -0.365815,1.03877 -1.19713,1.97464 -2.587296,2.91271 -0.903296,0.60954 -1.830927,1.04395 -2.893297,1.35493 -1.552749,0.45453 -3.956167,0.41325 -5.637708,-0.0968 -0.77917,-0.23636 -1.113843,-0.19245 -1.55227,0.20364 -0.509558,0.46036 -0.906762,1.05097 -1.007081,1.49746 -0.05398,0.24024 -0.03669,0.64976 0.05099,1.2078 0.08825,0.561679 0.143301,1.886429 0.164436,3.957369 0.02899,2.84227 0.04771,3.14907 0.215019,3.52729 0.368948,0.83407 1.218335,1.38411 2.374161,1.53743 0.50755,0.0673 0.838966,0.29178 0.838966,0.56819 0,0.22412 -0.716612,0.8727 -1.200955,1.08695 -0.289966,0.12826 -0.512398,0.16488 -0.741014,0.12199 -0.199779,-0.0375 -0.572395,0.002 -0.959241,0.10167 -0.616052,0.1587 -0.660585,0.15762 -1.705741,-0.0416 -1.237455,-0.23587 -2.425685,-0.25972 -3.232558,-0.0649 -0.796069,0.19222 -1.236135,0.1778 -1.557487,-0.051 l -0.27206,-0.19373 -0.220331,0.25614 c -0.210165,0.24433 -0.276227,0.25998 -1.432382,0.33906 -0.666632,0.0456 -1.34261,0.0591 -1.502173,0.03 -0.385711,-0.0703 -0.674896,-0.39555 -0.938458,-1.05552 -0.163193,-0.40865 -0.350502,-0.66014 -0.75448,-1.01303 -1.254299,-1.09568 -1.512262,-1.38998 -1.581109,-1.80385 -0.100049,-0.60147 0.146832,-1.28502 0.826337,-2.28797 0.329464,-0.48629 0.863085,-1.34889 1.185821,-1.91691 0.322736,-0.56801 0.930711,-1.62423 1.351058,-2.34716 0.725465,-1.247679 0.764264,-1.343009 0.764264,-1.877719 0,-0.52161 -0.05997,-0.68151 -0.809833,-2.15939 -1.835523,-3.61755 -2.265905,-4.83383 -2.275677,-6.43121 -0.01529,-2.49707 1.117392,-4.88133 3.486383,-7.33878 0.899595,-0.93319 1.638256,-1.46892 2.440545,-1.77008 1.430604,-0.537 5.181841,-1.31252 6.348752,-1.31252 0.396611,0 0.815021,0.0806 1.285185,0.24759 0.512578,0.18206 0.895947,0.25041 1.448211,0.25819 0.65995,0.009 0.830837,-0.0261 1.408295,-0.29173 0.36146,-0.16627 1.002798,-0.38822 1.425196,-0.49322 1.190665,-0.29598 2.31691,-0.71732 3.59772,-1.34595 1.417301,-0.69562 1.69462,-0.95398 3.445547,-3.21003 1.503199,-1.93686 2.940367,-3.5464 3.934447,-4.40634 1.37016,-1.18527 2.826061,-2.02206 3.784901,-2.17538 0.210718,-0.0337 0.383124,-0.0901 0.383124,-0.12545 0,-0.0353 0.08846,-0.15913 0.196577,-0.27518 0.149646,-0.16063 0.259652,-0.19715 0.460753,-0.15298 0.239972,0.0527 0.270283,0.0295 0.330838,-0.25267 0.09878,-0.46035 0.136832,-0.48578 0.382105,-0.25536 0.209224,0.19656 0.235004,0.20016 0.395146,0.0552 0.518178,-0.46895 1.644416,0.89242 3.403714,4.11433 0.479337,0.87783 1.031225,1.85742 1.226419,2.17686 0.464472,0.76011 1.02147,2.11389 1.02147,2.48268 0,0.1604 -0.162619,0.65633 -0.361375,1.10206 -0.455388,1.0213 -0.634316,1.74823 -0.765637,3.11065 -0.05724,0.59384 -0.126311,1.15566 -0.153492,1.24851 -0.05692,0.19442 -0.865626,1.28492 -1.280164,1.72624 -0.183452,0.1953 -0.409386,0.3207 -0.651522,0.36161 -0.203873,0.0344 -0.50457,0.17888 -0.668217,0.32098 -0.665521,0.57788 -1.061366,0.62053 -1.518308,0.16359 -0.315426,-0.31543 -0.610012,-1.07776 -0.610012,-1.57859 0,-0.14217 -0.04323,-0.37222 -0.09608,-0.51121 -0.09389,-0.24694 -0.109058,-0.25124 -0.66519,-0.18831 -0.710356,0.0804 -0.882233,-0.0197 -1.357982,-0.79045 -0.192631,-0.31209 -0.364455,-0.55323 -0.381832,-0.53585 -0.01739,0.0174 0.140314,0.45106 0.350414,0.96376 0.469621,1.14598 0.968237,3.059 1.123915,4.31207 0.06415,0.51638 0.151551,0.97813 0.194217,1.02612 0.04266,0.048 0.236878,0.0902 0.431582,0.0939 l 0.354012,0.007 0.0598,2.30022 c 0.06532,2.51263 0.0668,2.52069 0.77983,4.23956 0.869323,2.09563 0.974028,3.52326 0.462872,6.31109 -0.114019,0.621849 -0.193306,0.844009 -0.312335,0.875139 -0.132599,0.0347 -0.152314,0.12871 -0.116794,0.55703 0.03836,0.4626 0.0226,0.52057 -0.15395,0.56675 -0.172459,0.0451 -0.189956,0.10048 -0.142088,0.44973 0.06919,0.50478 -0.08796,0.83587 -0.356304,0.7507 -0.184002,-0.0584 -0.184967,-0.0526 -0.03055,0.18309 0.185343,0.28286 0.16704,0.44175 -0.184925,1.6051 -0.334545,1.10576 -0.413349,2.43813 -0.202688,3.42685 0.08252,0.38728 0.150065,0.73583 0.150104,0.77456 4.2e-5,0.0387 -0.253414,0.0704 -0.56324,0.0704 -0.743782,0 -0.900131,0.15344 -0.987483,0.96913 -0.07467,0.6972 -0.292943,1.11932 -0.68316,1.3211 -0.556307,0.28768 -2.240686,0.88537 -2.648127,0.93969 -0.279168,0.0372 -0.527191,0.01 -0.731136,-0.0816 z"
       id="path351" /><path
       id="path345"
       style="fill:#000000;stroke-width:0.0938862"
       d="m 27.076612,74.320151 c -0.333322,-0.003 -0.659663,0.0464 -0.978655,0.14743 -0.516052,0.16344 -0.664046,0.17471 -1.100963,0.0831 -0.659541,-0.13834 -0.934855,-0.0359 -1.332746,0.49602 -0.400951,0.53604 -0.891363,0.79078 -1.92302,0.99882 -0.833717,0.16813 -0.91187,0.16275 -1.783474,-0.12267 -0.242029,-0.0793 -0.208962,0.20782 0.04438,0.38526 0.12414,0.087 0.406975,0.14615 0.698464,0.14615 0.447311,0 0.698637,0.11534 0.557816,0.25617 -0.0308,0.0308 -0.371894,0.0819 -0.758058,0.11351 -1.176981,0.0963 -1.193231,0.44015 -0.01724,0.36527 0.406064,-0.0258 0.744387,-0.11768 1.077675,-0.29248 0.267195,-0.14013 0.686616,-0.35969 0.931895,-0.48795 0.689093,-0.36034 0.876642,-0.34842 1.076576,0.0686 0.150288,0.31345 0.296037,0.41222 1.337697,0.90678 1.297131,0.61584 1.351477,0.68096 1.187699,1.42003 -0.05114,0.23078 -0.103566,1.18021 -0.116625,2.10969 -0.01934,1.3776 0.0038,1.75069 0.124876,2.01855 0.248921,0.55046 0.254814,0.61922 0.107273,1.2352 -0.09341,0.39069 -0.124811,0.82076 -0.09113,1.25041 0.06358,0.81079 -0.08307,1.51538 -0.696446,3.34653 -0.704003,2.1017 -1.217275,5.29755 -1.090879,6.79283 0.07772,0.91948 0.369042,1.80306 0.814171,2.46964 0.206069,0.3086 0.374628,0.62425 0.374628,0.7014 0,0.0901 -0.258102,0.23188 -0.720651,0.39609 -1.684977,0.59818 -2.978973,1.827099 -3.834853,3.641939 -0.450413,0.95507 -0.608244,1.65566 -0.608244,2.69868 0,1.73437 0.487577,2.83525 1.875343,4.23443 1.277341,1.28783 2.387842,1.89043 3.951661,2.14416 1.852269,0.30053 3.697328,-0.0522 7.527776,-1.43892 2.197659,-0.79562 3.581842,-1.21147 4.703119,-1.41306 1.922319,-0.34561 2.892643,-0.28475 5.0948,0.31907 1.763941,0.48365 2.713561,0.64317 4.151903,0.69772 1.359513,0.0516 2.011012,0.2267 2.545016,0.6838 0.649751,0.55616 0.681201,1.28444 0.08179,1.89753 -1.063574,1.08785 -3.753531,1.4317 -6.92155,0.88459 -1.831494,-0.3163 -4.067428,-0.35799 -5.111671,-0.0952 -0.881741,0.22192 -1.957975,0.66386 -2.462682,1.01111 -0.476994,0.32817 -0.932003,0.95174 -0.850112,1.16514 0.08609,0.22435 0.32546,0.17717 1.765687,-0.34731 l 1.346498,-0.49033 1.361352,0.005 c 1.403776,0.005 1.356679,-0.002 4.506544,0.69204 1.725259,0.3803 4.346649,0.35553 5.953713,-0.0563 1.477702,-0.37868 2.713138,-1.32918 3.31793,-2.5529 0.335837,-0.67954 0.351723,-0.75433 0.351706,-1.65548 -1.8e-5,-0.84636 -0.02759,-0.99971 -0.26644,-1.48641 -0.355463,-0.72429 -1.044244,-1.38244 -1.872224,-1.78897 -0.88389,-0.43398 -2.668771,-0.96868 -3.510652,-1.05164 -0.606624,-0.0598 -0.98575,-0.17004 -0.873033,-0.25397 0.02432,-0.0181 0.390532,-0.16225 0.813987,-0.32035 1.499574,-0.55983 3.172043,-1.66333 3.968896,-2.61855 0.763703,-0.91547 1.284904,-2.33867 1.502549,-4.103309 0.400682,-3.24869 -1.70264,-6.86885 -4.75868,-8.1903 -2.047686,-0.88543 -4.377112,-1.03998 -6.25756,-0.41515 -1.303522,0.43314 -2.751189,1.2663 -4.003372,2.30388 -0.335641,0.27812 -0.953491,0.79045 -1.372904,1.13856 -1.93487,1.60592 -4.484171,2.48507 -5.960865,2.05578 -1.462592,-0.42519 -2.191637,-1.75972 -1.960611,-3.58895 0.110495,-0.87489 0.505433,-2.46316 0.745223,-2.99758 0.09268,-0.20655 0.470535,-0.85926 0.839659,-1.45047 1.220428,-1.95471 2.284538,-4.27669 2.734439,-5.96655 0.753217,-2.82914 -0.07654,-5.45668 -2.000768,-6.33604 -1.194102,-0.5457 -1.439215,-0.67089 -1.941357,-0.99076 -0.79509,-0.50649 -1.561954,-0.76314 -2.295264,-0.76906 z m 17.952644,20.82864 c 0.08077,5.2e-4 0.162602,0.003 0.245718,0.008 1.325837,0.0712 2.524116,0.82569 3.122821,1.9663 0.232367,0.44268 0.264079,0.60417 0.264789,1.34979 7.84e-4,0.76801 -0.02786,0.90517 -0.306598,1.47138 -0.379042,0.769939 -1.13708,1.492179 -1.9927,1.898449 -0.57001,0.27065 -0.687671,0.29107 -1.78384,0.30935 -1.651373,0.0275 -2.133512,-0.0895 -5.017602,-1.21851 -1.773318,-0.69419 -2.305568,-0.955999 -2.305532,-1.133969 10e-6,-0.0594 0.289753,-0.24704 0.643818,-0.41699 0.354064,-0.16994 1.061746,-0.64814 1.572596,-1.06264 0.510849,-0.41449 1.339329,-1.08601 1.841052,-1.49209 1.530057,-1.23839 2.503935,-1.68629 3.715478,-1.67859 z m -16.096004,7.395389 c 1.502452,-0.0129 3.362818,0.37427 5.211058,1.10353 0.601388,0.23728 1.739426,0.6535 2.529063,0.92492 0.789637,0.27142 1.462224,0.51988 1.494479,0.55214 0.03226,0.0322 -0.113261,0.0587 -0.323284,0.0587 -0.520976,0 -2.395312,0.32422 -3.588585,0.62072 -0.539993,0.13418 -1.722964,0.51909 -2.628817,0.85543 -0.905856,0.33635 -2.027285,0.69035 -2.492022,0.78684 -1.456945,0.30247 -2.680847,0.18988 -3.456191,-0.31814 -0.787523,-0.51601 -1.042101,-1.57722 -0.605677,-2.52393 0.449624,-0.97533 1.481338,-1.72475 2.690247,-1.95401 0.356455,-0.0676 0.749042,-0.10256 1.169729,-0.10617 z" /><path
       style="fill:#000000;stroke-width:0.0938862"
       d="m 64.929272,109.51999 c 0.137425,-0.17287 0.158119,-1.4041 0.02708,-1.61129 -0.07695,-0.12167 -0.09208,-0.12167 -0.126581,0 -0.195846,0.69079 -0.203337,0.70101 -0.535931,0.73077 -0.198604,0.0178 -0.390572,0.1099 -0.48912,0.23472 -0.159985,0.20263 -0.224759,0.72605 -0.104711,0.8461 0.113813,0.11382 1.108386,-0.0482 1.229257,-0.2003 z"
       id="path353" /><path
       style="fill:#000000;stroke-width:0.0938862"
       d="m 183.99539,107.58116 c 0.11733,-0.68773 0.16114,-2.36707 0.0643,-2.46393 -0.0831,-0.0831 -0.41321,0.70829 -0.53781,1.28926 -0.1142,0.53253 -0.0645,1.38711 0.10696,1.838 0.13496,0.35497 0.21871,0.20341 0.36659,-0.66333 z"
       id="path343" /><path
       style="fill:#000000;stroke-width:0.0938862"
       d="m 177.33468,122.86404 c -0.95498,-0.0982 -0.96736,-0.22524 -0.12655,-1.29851 0.49051,-0.62612 0.73293,-0.85023 1.12965,-1.04432 0.58364,-0.28555 0.87463,-0.60916 0.87463,-0.97268 0,-0.14067 0.1429,-0.56803 0.31757,-0.94967 0.17466,-0.38164 0.44928,-1.20492 0.61026,-1.82951 0.50642,-1.96488 0.40591,-3.07094 -0.49026,-5.39456 -0.22794,-0.59104 -0.5875,-1.6489 -0.79901,-2.35079 -0.4088,-1.35658 -1.8667,-4.93754 -2.03678,-5.0028 -0.0557,-0.0214 -0.39443,0.18933 -0.75273,0.46825 -0.83587,0.65068 -2.4818,1.47254 -3.56193,1.77856 -2.47492,0.70119 -5.1665,0.68706 -9.01308,-0.0473 -2.03093,-0.38776 -2.07736,-0.39198 -2.2999,-0.20947 -0.1897,0.15557 -0.19096,0.18798 -0.0824,2.12958 0.0606,1.08439 0.11881,3.17571 0.12928,4.64737 0.0167,2.34094 0.0443,2.7916 0.22064,3.6015 0.27947,1.28329 0.26555,1.51627 -0.127,2.12557 -0.3247,0.50399 -0.43399,1.05042 -0.23472,1.17358 0.15494,0.0958 0.10569,0.54282 -0.0963,0.8741 -0.24609,0.40362 -0.69454,0.58339 -1.42635,0.57178 -1.27965,-0.0203 -1.3658,-0.15528 -0.82517,-1.29289 0.22361,-0.47053 0.48856,-0.92972 0.58876,-1.02041 0.3186,-0.28833 0.42259,-0.61189 0.49066,-1.52668 0.10521,-1.414 -0.19683,-3.82346 -0.4914,-3.92016 -0.25745,-0.0845 -0.34037,0.5119 -0.39493,2.84047 -0.0513,2.18909 -0.0691,2.37374 -0.26431,2.742 -0.11515,0.21714 -0.35841,0.51289 -0.54059,0.6572 l -0.33124,0.26237 0.061,0.62926 c 0.0593,0.6116 0.053,0.63729 -0.22508,0.91539 -0.28391,0.2839 -0.29403,0.28612 -1.30263,0.28469 -0.55907,-0.001 -1.07883,-0.0409 -1.15502,-0.089 -0.22551,-0.14261 0.48411,-1.51536 1.14482,-2.21462 0.29528,-0.3125 0.60034,-0.72012 0.67793,-0.90581 0.32803,-0.78507 0.42074,-4.02193 0.14603,-5.09804 -0.0527,-0.20655 -0.13501,-1.2839 -0.18286,-2.3941 -0.11985,-2.78069 -0.40251,-4.71569 -0.78972,-5.40598 -0.11033,-0.19668 -0.58081,-0.6648 -1.04551,-1.04028 -1.50046,-1.21235 -1.828,-1.75568 -1.83035,-3.03627 -0.001,-0.83542 -0.20261,-2.388909 -0.39027,-3.015249 -0.0604,-0.20171 -0.33908,-0.63032 -0.61922,-0.95248 -0.95534,-1.09865 -1.57209,-2.3521 -2.29071,-4.65548 -0.3847,-1.23313 -0.48037,-1.42262 -0.71821,-1.42262 -0.0801,0 -1.07838,0.29834 -2.21831,0.66298 -1.92865,0.61693 -2.09542,0.68812 -2.40119,1.02497 -0.43149,0.47532 -0.82361,0.65921 -1.40574,0.65921 -0.42715,0 -0.51927,-0.0397 -0.89466,-0.38573 -0.72777,-0.67084 -1.11546,-1.7878 -0.89924,-2.59077 0.16212,-0.60209 0.98806,-1.77994 1.92875,-2.75057 0.97751,-1.0086 1.16715,-1.26622 1.40601,-1.90992 0.26592,-0.7166 1.02584,-1.77136 1.79111,-2.48604 0.38642,-0.36088 0.70258,-0.72203 0.70258,-0.80258 0,-0.0805 -0.12688,-0.29096 -0.28197,-0.46759 -0.15508,-0.17663 -0.35037,-0.4844 -0.43398,-0.68394 -0.16994,-0.40561 -0.29868,-1.91192 -0.1634,-1.91192 0.0473,0 0.33083,0.23153 0.63009,0.51453 0.78868,0.74581 0.98341,0.77685 2.36475,0.37692 0.61798,-0.17891 1.2165,-0.32594 1.33006,-0.32672 0.12668,-8.5e-4 0.30333,0.12557 0.4571,0.32719 0.13786,0.18073 0.32945,0.3286 0.42577,0.3286 0.25929,0 1.30684,-0.53018 1.59721,-0.80837 0.64079,-0.61392 0.82467,0.21405 0.28912,1.30189 -0.39682,0.80607 -0.38878,0.88411 0.0991,0.96184 0.81243,0.12944 1.3255,0.44641 1.80084,1.11254 0.24261,0.33999 0.76973,0.89226 1.17137,1.22725 0.90429,0.75425 1.27324,1.19986 1.83486,2.21611 0.51764,0.93666 0.71575,1.16606 1.1864,1.37371 0.30004,0.13238 0.40421,0.26905 0.73404,0.96311 0.21141,0.44487 0.38438,0.9403 0.38438,1.10097 0,0.16067 0.0579,0.34022 0.12875,0.39899 0.17076,0.14172 2.33947,0.63292 3.34504,0.75763 1.3608,0.16877 4.26831,0.22476 5.64331,0.10867 0.70268,-0.0593 2.01814,-0.21251 2.92325,-0.34042 4.71043,-0.6657 7.07837,-0.80439 8.23367,-0.48225 1.41437,0.39439 2.79483,1.24498 3.84423,2.36866 1.05751,1.13236 1.57687,2.45891 1.92662,4.92087 0.1672,1.17705 0.13502,1.68515 -0.21406,3.379899 -0.27432,1.33186 -0.42114,3.01614 -0.35582,4.08212 0.14135,2.30669 0.44554,6.07635 0.54563,6.76175 0.0603,0.4131 0.11058,1.38483 0.11166,2.15939 0.002,1.78297 -0.21259,3.18764 -0.6507,4.24945 -0.17602,0.42661 -0.32062,0.87023 -0.32133,0.98581 -0.005,0.89647 -0.63665,0.90877 -0.8042,0.0157 -0.0579,-0.30852 -0.22726,-0.4558 -0.22726,-0.1976 0,0.0684 -0.14787,0.33229 -0.3286,0.58649 -0.36234,0.50963 -0.40089,0.78323 -0.18364,1.30319 0.0797,0.19083 0.12104,0.42237 0.0918,0.51453 -0.14964,0.47148 -2.24852,0.88262 -2.72545,0.53388 -0.17048,-0.12465 -0.15985,-0.16788 0.27114,-1.10316 0.24672,-0.53539 0.54778,-1.1213 0.66904,-1.30203 0.16475,-0.24557 0.24809,-0.56483 0.32979,-1.26341 0.0601,-0.51414 0.18968,-1.40136 0.28787,-1.97161 0.30461,-1.76906 0.18577,-3.47785 -0.24187,-3.47785 -0.13925,0 -0.22089,0.12975 -0.35445,0.56332 -0.39314,1.27619 -0.92475,3.47381 -1.18873,4.91414 -0.15466,0.84383 -0.3589,1.66768 -0.45389,1.83078 -0.12062,0.20712 -0.32699,0.35772 -0.68431,0.49937 -0.52945,0.20991 -0.78425,0.50728 -0.69099,0.80646 0.20589,0.66053 -0.61936,0.93137 -2.3086,0.75766 z"
       id="path341" /><path
       id="path325"
       style="fill:#000000;stroke-width:0.0938862"
       d="m 147.59805,119.79194 c -0.70072,-0.0368 -1.27794,0.48323 -1.37327,1.29442 -0.14073,1.19734 -0.65541,1.69572 -2.0402,1.97601 -0.36265,0.0734 -0.70284,0.38058 -0.92144,0.83214 -0.10721,0.22147 -0.94082,1.24584 -1.8526,2.27638 -1.91508,2.16453 -2.11415,2.49998 -2.17571,3.66689 -0.0342,0.64883 -0.0169,0.7691 0.11773,0.82077 0.16048,0.0616 0.6495,-0.14093 0.75586,-0.31302 0.0321,-0.052 0.29098,-0.0944 0.57523,-0.0944 0.55161,0 0.57858,-0.0182 1.23758,-0.827 0.24018,-0.29477 0.33144,-0.32697 1.80218,-0.63868 2.66441,-0.5647 3.03005,-0.62303 3.61737,-0.57616 0.71798,0.0573 1.25171,0.32955 1.70536,0.86973 0.92939,1.10668 3.05324,4.70952 5.61686,9.528 1.9938,3.74746 2.68447,4.97219 3.7593,6.66593 0.47515,0.74874 0.99106,1.61484 1.14626,1.92467 0.33379,0.66629 0.83973,2.24095 0.92383,2.8749 0.0574,0.43278 0.0444,0.4656 -0.37592,0.94601 -0.23951,0.27373 -0.60675,0.84807 -0.816,1.27627 -0.96526,1.97534 -0.99887,2.99828 -0.13973,4.24726 0.27687,0.4025 0.33557,0.57116 0.33557,0.96527 0,0.26267 0.11431,0.87372 0.25415,1.35787 0.25424,0.88021 0.25427,0.88027 0.0851,1.36611 -0.32687,0.9387 -0.97286,2.19377 -1.65347,3.2125 -1.68605,2.5237 -3.05935,4.39667 -3.48974,4.75959 -1.00031,0.84347 -1.44232,1.87769 -1.5814,3.69989 -0.0669,0.87617 -0.16469,1.41081 -0.38123,2.08457 -0.16017,0.49839 -0.62293,2.10217 -1.02835,3.56402 -0.6758,2.43679 -0.76481,2.6888 -1.07144,3.0282 -0.23572,0.26092 -0.33546,0.46012 -0.33759,0.67499 -0.0131,1.31277 -0.0483,1.46946 -0.55653,2.47442 -0.27451,0.54279 -0.70481,1.26896 -0.9561,1.61367 -0.2513,0.34469 -0.44293,0.66831 -0.42597,0.71918 0.0975,0.29251 2.49014,0.30763 3.04213,0.0193 0.54287,-0.28362 0.61609,-0.60937 0.25636,-1.13948 -0.46041,-0.67844 -0.38709,-1.28098 0.23912,-1.96592 0.54279,-0.59371 0.66612,-0.91893 0.76429,-2.01544 0.0706,-0.78898 0.18493,-1.28069 0.54791,-2.35816 0.25224,-0.74875 0.56977,-1.78384 0.7058,-2.30022 0.45524,-1.72804 0.82208,-2.71283 1.5405,-4.13521 0.39236,-0.77683 0.79524,-1.59925 0.89523,-1.82767 0.1,-0.22843 0.52247,-0.77411 0.93886,-1.21264 2.38541,-2.51226 3.96497,-4.12828 4.60685,-4.71339 0.61692,-0.56236 0.74607,-0.64297 0.85579,-0.53324 0.15524,0.15522 0.98432,3.37761 1.25445,4.87549 0.10596,0.58761 0.25496,1.60085 0.33117,2.25162 0.15034,1.28388 0.27595,1.72962 0.69516,2.46727 0.20702,0.36427 0.29645,0.68497 0.36949,1.32559 0.10361,0.90865 0.15408,7.29575 0.0734,9.28246 l -0.0491,1.20824 -0.58624,0.88916 c -0.32249,0.48907 -0.78962,1.10572 -1.03788,1.37016 -0.41967,0.447 -0.56145,0.72267 -0.3717,0.72267 0.0438,0 1.25849,0.17132 2.69924,0.38086 2.575,0.37451 3.28594,0.40849 3.57244,0.17072 0.17152,-0.14234 0.15959,-0.3856 -0.0358,-0.72597 -0.1593,-0.27755 -0.15783,-0.2886 0.0704,-0.53324 0.1282,-0.13742 0.42819,-0.34928 0.66674,-0.47072 0.23856,-0.12144 0.5397,-0.3466 0.66912,-0.50042 0.12943,-0.15381 0.70929,-1.47614 1.28856,-2.93853 1.72422,-4.3529 3.30053,-7.35489 4.69468,-8.94029 0.26804,-0.30481 0.52605,-0.65606 0.5734,-0.78061 0.0474,-0.12457 0.0862,-0.86911 0.0862,-1.65457 0,-1.65277 0.11566,-2.76737 0.37664,-3.62947 0.24215,-0.79992 0.3177,-0.91518 0.50061,-0.76338 0.21628,0.17951 2.13335,3.40526 2.72013,4.57696 0.28757,0.5742 0.71539,1.52287 0.95061,2.10804 0.2352,0.58516 0.66058,1.43138 0.94528,1.88048 0.2847,0.44909 0.59921,1.00066 0.69883,1.22584 0.32227,0.72854 1.77491,6.37461 2.01323,7.82465 0.1273,0.77456 0.27079,1.51321 0.3187,1.64154 0.14815,0.39685 -0.12895,0.98919 -0.79125,1.69124 -0.32855,0.3483 -0.59742,0.67821 -0.59742,0.73331 0,0.0551 0.17955,0.12336 0.39902,0.15164 0.21945,0.0283 0.50464,0.0681 0.63373,0.0884 0.1291,0.0202 0.72011,0.0312 1.31331,0.0246 1.27241,-0.0143 1.30952,-0.0516 0.80298,-0.80427 -0.45417,-0.67487 -0.45118,-1.113 0.0139,-2.05431 l 0.34657,-0.70122 -0.1665,-0.43239 c -0.45122,-1.17225 -1.74108,-5.76461 -2.07283,-7.37997 -0.41961,-2.0431 -0.65894,-4.64738 -0.42708,-4.64738 0.0507,0 0.11075,0.0951 0.1335,0.21125 0.087,0.44412 0.43699,3.3537 0.51674,4.2953 0.0459,0.54219 0.15623,1.16642 0.24517,1.38739 0.16537,0.41085 0.4539,0.66454 0.5602,0.49253 0.12772,-0.20665 -0.20075,-3.97632 -0.3893,-4.46767 -0.0285,-0.0742 -0.004,-0.13496 0.0541,-0.13496 0.0583,0 0.14271,0.0951 0.18759,0.21125 0.31344,0.81128 0.48585,1.10297 0.96362,1.63017 0.29704,0.32777 0.6061,0.72335 0.68673,0.87927 0.27212,0.52625 0.53139,0.25428 0.2956,-0.31008 -0.0767,-0.18364 -0.3057,-0.51605 -0.50886,-0.73862 -0.55343,-0.60633 -0.61568,-0.7813 -0.67976,-1.91257 -0.0483,-0.8524 -0.11982,-1.2142 -0.39865,-2.01856 -0.18684,-0.53901 -0.46684,-1.40301 -0.62236,-1.9199 -0.32443,-1.07816 -0.69719,-1.7005 -1.22878,-2.0523 -0.45547,-0.30141 -0.59424,-0.56052 -0.89834,-1.6762 -0.2898,-1.06321 -0.41067,-2.98772 -0.41478,-6.60651 -0.002,-2.13069 -0.027,-2.54441 -0.18924,-3.17875 -0.25121,-0.98226 -1.0467,-2.54352 -2.10896,-4.13944 -1.34447,-2.0199 -2.0744,-2.616 -4.13577,-3.37679 -1.82681,-0.67421 -3.7318,-1.81311 -4.97616,-2.9752 -0.80974,-0.75621 -1.19341,-1.32503 -1.41251,-2.09411 -0.21774,-0.76434 -0.53722,-1.37634 -1.13067,-2.1658 -0.86118,-1.14561 -1.46626,-1.63234 -3.60619,-2.90094 -1.41111,-0.83654 -2.89505,-1.95729 -4.18747,-3.16243 -1.66618,-1.55365 -2.08498,-2.03923 -5.24921,-6.08849 -2.99821,-3.83683 -4.56211,-5.48059 -6.72589,-7.0688 l -0.76062,-0.55819 0.0611,-0.59687 c 0.0535,-0.52224 0.0375,-0.62065 -0.12891,-0.78703 -0.27572,-0.27572 -0.45086,-0.23676 -0.83691,0.18557 -0.1888,0.20655 -0.40881,0.37555 -0.48905,0.37555 -0.26499,0 -0.59174,-0.44876 -0.59174,-0.81271 0,-0.2771 0.0626,-0.38848 0.3473,-0.61686 0.26,-0.20858 0.34749,-0.34884 0.34749,-0.55745 0,-0.41089 -0.15035,-0.62275 -0.51289,-0.72285 -0.10409,-0.0287 -0.20668,-0.0454 -0.30678,-0.0506 z m 18.84273,41.83479 c 0.22058,-4.2e-4 0.64655,0.0946 1.56178,0.30733 1.69114,0.39306 3.30894,0.61393 4.49847,0.61393 0.75061,0 0.89718,0.0251 0.97297,0.16669 0.14855,0.27756 0.288,1.21918 0.37848,2.55602 0.0472,0.6971 0.13821,1.39421 0.20226,1.54912 0.0685,0.16576 0.13366,0.89982 0.15825,1.78384 0.043,1.54585 -0.0422,2.45582 -0.43917,4.69432 -0.10074,0.56801 -0.22432,1.58266 -0.27469,2.25492 -0.0857,1.14366 -0.12176,1.29764 -0.55984,2.3941 -1.16826,2.92394 -2.51823,5.73487 -3.37862,7.03506 -0.28875,0.43633 -0.96577,1.24962 -1.50457,1.80731 -0.53879,0.55768 -1.00573,1.01057 -1.0377,1.00653 -0.18263,-0.0233 -0.31199,-0.13262 -0.43257,-0.36583 -0.16846,-0.32576 -0.0447,-1.25397 0.20886,-1.56691 0.71351,-0.88044 0.71416,-0.88145 0.72065,-1.37584 0.003,-0.26748 -0.0494,-1.28903 -0.11736,-2.27014 -0.14695,-2.12127 -0.19041,-7.62681 -0.0724,-9.16144 0.0926,-1.20387 0.01,-2.01013 -0.36986,-3.6071 -0.12277,-0.51638 -0.31013,-1.74159 -0.41644,-2.7227 -0.10629,-0.98112 -0.25557,-2.16409 -0.33172,-2.62882 -0.16139,-0.98501 -0.18073,-2.0472 -0.042,-2.30645 0.0564,-0.10545 0.10368,-0.16361 0.27524,-0.16394 z" /><path
       id="path333"
       style="fill:#000000;stroke-width:0.0938862"
       d="m 106.22884,105.57935 c -1.40833,-0.0244 -2.68322,0.48958 -4.38424,1.7501 -0.95854,0.71032 -0.99856,0.75444 -1.21062,1.33604 -0.17319,0.47502 -0.34962,0.73166 -0.839469,1.22071 -0.769448,0.76816 -1.527247,1.14348 -3.395127,1.68207 -2.34192,0.67526 -4.102148,1.41173 -5.080501,2.12546 -0.363685,0.26531 -0.519604,0.48584 -0.915573,1.2946 -0.413364,0.84428 -0.613291,1.11931 -1.49393,2.05505 -1.13303,1.20393 -1.605618,1.97615 -1.855355,3.03169 -0.211715,0.89483 -0.122908,2.7667 0.240032,5.05922 0.348977,2.20434 0.37316,3.53051 0.08784,4.83514 -0.327874,1.49919 -0.333143,1.88699 -0.03777,2.77589 l 0.258555,0.77823 -0.207763,0.42909 c -0.128901,0.26628 -0.492849,0.6866 -0.95885,1.10738 -1.261247,1.13884 -1.426442,1.65307 -0.961416,2.99061 0.137236,0.39474 0.258611,0.98335 0.280009,1.35695 0.02078,0.36289 0.143549,0.97073 0.272855,1.3509 0.509065,1.49668 0.716984,3.5139 0.523344,5.07775 -0.211101,1.70485 -0.228971,2.54768 -0.06253,2.94531 0.212201,0.50698 0.191311,0.77932 -0.103055,1.34155 -0.209135,0.39945 -0.238694,0.5345 -0.163751,0.74761 0.12019,0.34175 0.5491,0.58229 1.228956,0.68911 0.930016,0.14611 3.622548,0.0427 4.568891,-0.17549 1.091978,-0.25173 1.312312,-0.36645 1.436352,-0.74889 0.05625,-0.17343 0.176891,-0.35715 0.26809,-0.40818 0.0912,-0.051 0.868982,-0.12759 1.728462,-0.17017 2.523249,-0.12497 3.353642,-0.57918 2.525027,-1.38116 -0.445236,-0.43091 -0.897285,-0.58642 -1.704254,-0.58642 -0.385576,0 -0.820088,-0.045 -0.965455,-0.0999 -1.151053,-0.4349 -2.001136,-2.80682 -2.001136,-5.5833 0,-2.25896 0.721601,-5.32689 1.975648,-8.39971 0.399677,-0.97935 0.492707,-1.3212 0.562033,-2.0655 0.09511,-1.02113 0.277039,-1.69311 0.668026,-2.46782 0.364739,-0.72271 1.017393,-1.78709 1.14864,-1.87314 0.05787,-0.0379 0.531531,-0.0694 1.052555,-0.0704 1.215266,-0.002 2.20497,0.24338 3.05497,0.75695 0.99418,0.6007 1.45912,0.73816 2.88297,0.8514 1.27398,0.10133 6.94559,0.0526 8.15087,-0.0701 0.53604,-0.0545 0.58808,-0.0427 0.72194,0.1632 0.22305,0.34306 0.45612,2.31843 0.46393,3.93039 0.004,0.80038 -0.0154,3.0607 -0.0429,5.02292 -0.054,3.8463 -0.0837,4.12657 -0.6484,6.14222 -0.31277,1.11639 -0.34644,1.84191 -0.12157,2.61543 0.14188,0.48809 0.14126,0.56016 -0.008,1.0333 -0.0882,0.27972 -0.13499,0.60909 -0.10416,0.73202 0.0835,0.33285 0.56036,0.53657 1.22401,0.52298 0.72266,-0.0148 1.08262,0.06 1.08262,0.22463 0,0.0716 -0.0691,0.27497 -0.15348,0.45201 -0.36475,0.76487 0.22462,1.14973 1.95694,1.27792 2.37459,0.17572 4.76858,-0.33998 4.76858,-1.02725 0,-0.24003 -0.58608,-0.72786 -1.00799,-0.83911 -0.19432,-0.0512 -0.83923,-0.12251 -1.43306,-0.15825 -0.59383,-0.0358 -1.16419,-0.10205 -1.26746,-0.14743 -0.14972,-0.0658 -0.13167,-0.0746 0.0891,-0.0431 0.42423,0.0605 0.70297,-0.0924 0.86204,-0.47309 0.2448,-0.58592 -0.10496,-0.96121 -1.16129,-1.24565 -0.2183,-0.0588 -0.4412,-0.18974 -0.49529,-0.29083 -0.19653,-0.3672 -0.21302,-1.67618 -0.0457,-3.62856 0.15807,-1.84388 0.1853,-1.99301 0.47879,-2.62019 0.41706,-0.89128 0.48226,-1.21061 0.6495,-3.18426 0.17191,-2.02872 0.3277,-2.93552 0.75018,-4.36571 0.17541,-0.59383 0.40287,-1.46704 0.50537,-1.94044 0.29755,-1.37422 0.51179,-1.69092 1.61165,-2.38126 1.39098,-0.87309 2.00088,-1.01802 3.36726,-0.80079 1.822,0.28968 3.59376,0.14666 5.2294,-0.42175 1.0767,-0.37418 4.3529,-1.96926 4.84486,-2.3589 0.20881,-0.16539 0.51735,-0.51457 0.68563,-0.77584 0.16828,-0.26127 0.72978,-1.00127 1.24784,-1.64448 1.02971,-1.27844 1.67862,-2.28748 2.06422,-3.20992 0.20422,-0.48854 0.2498,-0.74441 0.25121,-1.4127 0.002,-0.78258 0.0139,-0.82892 0.2934,-1.12663 0.16034,-0.17077 0.42307,-0.50644 0.58386,-0.74578 0.41416,-0.61648 0.75427,-0.87147 1.58744,-1.19026 0.9889,-0.37839 1.53873,-0.43912 2.18451,-0.2415 0.80238,0.24553 1.30648,0.22235 1.76496,-0.0811 0.58928,-0.38994 0.71563,-0.70466 0.58477,-1.45615 -0.13275,-0.76229 -0.37911,-1.2571 -0.77621,-1.55829 -0.50803,-0.38534 -1.92253,-1.06302 -3.23762,-1.55115 -1.57547,-0.58475 -1.77908,-0.70744 -2.20926,-1.33109 -0.24247,-0.35152 -0.5064,-0.59468 -0.84498,-0.7786 -0.485,-0.26344 -0.50852,-0.26644 -1.57204,-0.20519 -1.27041,0.0732 -2.18315,0.24434 -2.6952,0.50556 -0.79408,0.40511 -1.34121,1.34584 -1.34228,2.30773 -2.8e-4,0.26815 -0.0846,0.50805 -0.28313,0.80464 -0.5081,0.75926 -0.58701,1.17441 -0.60586,3.19213 -0.0219,2.35157 -0.17191,2.91681 -0.99167,3.73657 -1.19882,1.19881 -3.18984,1.77198 -4.82121,1.38812 -0.88675,-0.20865 -1.87469,-0.74987 -2.49752,-1.36832 -0.28662,-0.2846 -1.14379,-1.36991 -1.90487,-2.41189 -1.47298,-2.01664 -1.95104,-2.51182 -2.81897,-2.91946 -0.29966,-0.14073 -1.30169,-0.62404 -2.22669,-1.07401 -1.89202,-0.92038 -3.12114,-1.45298 -4.0692,-1.76312 -0.3543,-0.1159 -0.71342,-0.2988 -0.79804,-0.40653 -0.0846,-0.10774 -0.41412,-0.47235 -0.7322,-0.81032 -0.3296,-0.35021 -0.67634,-0.83666 -0.8061,-1.13104 -0.26022,-0.59034 -0.63625,-0.95298 -1.54491,-1.48971 -0.8692,-0.51341 -1.94355,-0.85652 -2.87655,-0.91869 -0.0952,-0.006 -0.18979,-0.0105 -0.28368,-0.0121 z m -15.807926,31.08407 c 0.105659,4e-5 0.160486,0.23276 0.201708,0.68764 0.0361,0.39837 0.170632,1.27689 0.298898,1.95236 0.534664,2.81572 0.583086,3.53697 0.399013,5.94584 -0.127294,1.66589 -0.08329,1.90943 0.481903,2.66163 l 0.370778,0.49328 -0.202993,0.36124 c -0.111659,0.19866 -0.278774,0.42968 -0.371329,0.51344 -0.35255,0.31905 -1.474289,0.21161 -2.105106,-0.20171 -0.329549,-0.21593 -0.506106,-0.68831 -0.506106,-1.35438 0,-0.34835 -0.09333,-0.84978 -0.246451,-1.3245 -0.241093,-0.74746 -0.24533,-0.80469 -0.197859,-2.65815 0.07057,-2.75539 0.420738,-4.45706 1.268933,-6.16588 0.303816,-0.61208 0.488861,-0.91085 0.608611,-0.91081 z" /><path
       style="fill:#000000;stroke-width:0.0938862"
       d="m 30.291652,149.41719 c -0.312729,-0.0957 -0.452397,-0.33187 -0.452397,-0.76512 0,-0.55392 0.287631,-1.01175 0.79032,-1.25799 0.349985,-0.17145 0.39263,-0.17243 1.013912,-0.0233 0.462286,0.11094 0.699671,0.1283 0.8265,0.0604 0.09787,-0.0524 0.359278,-0.46101 0.580915,-0.90808 l 0.402977,-0.81286 0.03226,-1.34426 c 0.01774,-0.73934 -0.01487,-2.0727 -0.07241,-2.963 -0.1419,-2.19457 -0.124626,-2.16546 -1.715354,-2.89011 -0.809092,-0.36858 -1.567472,-1.06589 -2.022055,-1.8592 -0.249158,-0.43481 -0.465125,-0.68539 -0.700409,-0.81262 -0.187099,-0.10118 -0.396813,-0.31243 -0.46603,-0.46943 l -0.125853,-0.28547 -0.808857,-0.004 c -0.724184,-0.004 -0.876215,-0.0375 -1.452303,-0.32112 -0.808265,-0.39791 -1.83267,-1.40554 -2.294491,-2.2569 -0.181919,-0.33537 -0.392538,-0.60976 -0.468035,-0.60976 -0.0755,0 -0.229979,0.19527 -0.343292,0.43394 -0.287716,0.60601 -0.6384,0.86437 -1.091283,0.80398 -0.686162,-0.0915 -1.121256,-0.56991 -1.2403,-1.36375 -0.121357,-0.80931 -0.40747,-1.14167 -0.982767,-1.14167 -0.570209,0 -0.928732,-0.23453 -1.178423,-0.77087 -0.127159,-0.27313 -0.231608,-0.54284 -0.232111,-0.59935 -3.55e-4,-0.0565 -0.212163,-0.34415 -0.470349,-0.6392 -0.264679,-0.30246 -0.469433,-0.6284 -0.469433,-0.74726 0,-0.39567 0.472662,-1.16008 1.229978,-1.98916 0.871715,-0.9543 1.161067,-1.35535 1.584476,-2.1961 0.167466,-0.33253 0.532198,-0.84334 0.810514,-1.13513 0.533416,-0.55922 0.595418,-0.70903 0.363686,-0.87873 -0.122965,-0.0901 -0.0974,-0.17245 0.187774,-0.60533 0.181564,-0.27561 0.329346,-0.59248 0.328406,-0.70415 -0.0011,-0.11168 -0.126684,-0.38747 -0.279431,-0.61288 -0.280395,-0.41377 -0.421223,-0.88241 -0.360271,-1.1989 0.02285,-0.11875 0.148318,-0.19097 0.403843,-0.23251 0.20387,-0.0331 0.387013,-0.10927 0.406987,-0.1692 0.01998,-0.0599 0.142176,-0.23475 0.271564,-0.38852 0.129387,-0.15376 0.211168,-0.34232 0.181737,-0.41902 -0.03616,-0.0942 0.0064,-0.13944 0.131318,-0.13944 0.159607,0 0.184825,-0.0651 0.184825,-0.47725 0,-0.57901 0.127472,-0.57689 0.469433,0.008 0.385636,0.65937 0.493988,0.60708 0.416941,-0.20121 -0.03621,-0.37989 -0.04004,-0.6669 -0.0085,-0.63777 0.03155,0.0291 0.155124,0.34598 0.274643,0.70414 0.135878,0.40718 0.268427,0.65121 0.353722,0.65121 0.161284,0 0.425765,-0.49641 0.56275,-1.05622 0.140203,-0.57296 0.278174,-0.49147 0.278174,0.1643 0,0.30982 0.03773,0.56332 0.08384,0.56332 0.108505,0 0.19782,-0.2366 0.19782,-0.52406 0,-0.28379 0.153038,-0.2966 0.240777,-0.0201 0.0652,0.20544 0.06709,0.20507 0.272724,-0.0528 l 0.207067,-0.25968 -0.04219,0.50879 c -0.0758,0.91408 0.292272,1.20301 0.652561,0.51224 0.148557,-0.28482 0.218245,-0.352 0.243506,-0.23472 0.01948,0.0904 0.116791,0.16431 0.216279,0.16431 0.130356,0 0.18089,0.0656 0.18089,0.23471 0,0.29247 0.132287,0.29194 0.610261,-0.002 0.206549,-0.12721 0.460043,-0.23038 0.563318,-0.22925 0.15626,0.002 0.132723,0.0477 -0.140228,0.27395 -0.455754,0.37781 -0.295335,0.45372 0.34952,0.16539 0.297989,-0.13325 0.828199,-0.31385 1.178244,-0.40134 0.583566,-0.14587 0.650231,-0.14661 0.802343,-0.009 0.113823,0.10301 0.267681,0.13432 0.490187,0.0997 0.252505,-0.0393 0.417824,0.01 0.746784,0.22046 l 0.422491,0.27088 1.079693,-0.0703 c 1.699556,-0.11065 2.065498,-0.10251 2.065498,0.0459 0,0.23871 0.21954,0.3265 0.629004,0.25149 0.895968,-0.16413 1.948789,0.19944 3.775688,1.30385 1.206431,0.72931 1.41393,0.81683 2.47409,1.04339 0.829938,0.17735 0.977522,0.24309 1.731233,0.77117 l 0.371314,0.26015 1.588475,-0.10359 c 0.873663,-0.057 3.933288,-0.14238 6.799169,-0.18978 2.865879,-0.0474 5.603739,-0.11157 6.084133,-0.14261 0.912334,-0.0589 1.546092,0.0191 4.00377,0.49322 2.379458,0.45902 5.099566,1.55928 6.342204,2.56538 1.952945,1.58119 4.433087,2.75628 6.093799,2.88723 0.783233,0.0618 1.041561,0.22748 1.041561,0.66816 0,0.35941 -0.250706,0.56309 -0.902579,0.73332 -0.706378,0.18446 -1.061926,0.37315 -1.887057,1.00144 -0.372457,0.28362 -0.900567,0.59023 -1.173578,0.68138 -0.574524,0.19179 -1.608283,0.23253 -1.771054,0.0698 -0.233336,-0.23331 0.94603,-1.90808 1.34366,-1.90808 0.226863,0 -0.08555,-0.17393 -0.726193,-0.4043 -0.361464,-0.12998 -1.157064,-0.43278 -1.768006,-0.6729 -1.060975,-0.41698 -1.121174,-0.42977 -1.34207,-0.28503 -0.127198,0.0833 -0.269605,0.25235 -0.316455,0.37558 -0.136992,0.36032 -0.401913,6.35711 -0.333921,7.55869 0.144242,2.54907 0.45992,3.71501 1.245581,4.60043 0.565929,0.63779 0.723407,0.9964 0.721505,1.64301 -0.0021,0.74325 -0.742377,3.89773 -1.056636,4.50307 -0.168953,0.32545 -0.2516,0.65103 -0.274076,1.0797 -0.06155,1.17378 -0.322118,1.33912 -2.194722,1.39269 -1.048694,0.03 -1.34074,0.009 -1.60653,-0.11748 -0.320117,-0.15191 -0.538968,-0.47035 -0.538283,-0.78326 0.0014,-0.56939 0.930352,-1.21602 1.594606,-1.10981 0.257792,0.0412 0.403489,0.0178 0.50209,-0.0808 0.0764,-0.0764 0.253172,-0.61509 0.392821,-1.19708 0.195907,-0.81646 0.241629,-1.19175 0.200155,-1.64291 -0.09586,-1.04273 -0.299512,-1.35656 -2.423098,-3.73404 -0.368983,-0.4131 -0.856655,-1.03627 -1.083714,-1.38482 -0.227055,-0.34856 -0.452425,-0.63373 -0.500815,-0.63373 -0.127181,0 -0.61267,0.99968 -0.898531,1.85018 -0.195161,0.58065 -0.259917,1.00301 -0.313715,2.0461 -0.05418,1.05064 -0.106593,1.3898 -0.261163,1.69011 -0.357675,0.69491 -1.834032,2.52666 -2.854179,3.54125 -0.79317,0.78885 -1.034433,1.08982 -1.115781,1.39192 -0.08288,0.30777 -0.169287,0.41282 -0.428771,0.52124 -0.620481,0.25925 -1.073463,0.26003 -2.037271,0.004 -1.49652,-0.39831 -1.853832,-0.64897 -1.849485,-1.29743 0.0043,-0.64047 0.554844,-1.01798 1.621359,-1.11174 l 0.767446,-0.0675 0.693923,-0.7356 c 1.522175,-1.6136 1.781554,-2.16167 1.864197,-3.93906 0.06373,-1.37074 -0.0946,-3.45955 -0.40159,-5.29785 -0.125352,-0.75064 -0.22808,-1.52074 -0.228283,-1.71134 -1.88e-4,-0.19059 -0.04177,-0.37212 -0.09237,-0.40339 -0.05061,-0.0313 -0.547027,0.19751 -1.103167,0.50841 -0.556135,0.3109 -1.349145,0.68725 -1.762246,0.83632 -0.413101,0.14908 -1.172269,0.53084 -1.687041,0.84835 -1.524415,0.94026 -1.679596,0.98224 -3.758366,1.01675 -1.42685,0.0237 -1.804204,0.057 -1.885584,0.16626 -0.05596,0.0752 -0.156001,0.57124 -0.222315,1.1024 -0.168545,1.34995 -0.562335,2.84393 -1.083579,4.11094 -0.741522,1.80245 -0.733374,1.7732 -0.565231,2.02983 0.120786,0.18434 0.225853,0.22345 0.600332,0.22345 0.336096,0 0.617567,0.0853 1.084353,0.3286 0.346734,0.18073 0.729687,0.3286 0.851006,0.3286 0.459841,0 1.236681,1.26474 1.106945,1.80218 -0.07408,0.3069 -0.478105,0.71386 -0.773021,0.77863 -0.137744,0.0303 -0.499797,-0.01 -0.804564,-0.0893 -0.30477,-0.0794 -0.692996,-0.14433 -0.862729,-0.14433 -0.224742,0 -0.414503,-0.0957 -0.698295,-0.35208 -0.369508,-0.33384 -0.424222,-0.35261 -1.056493,-0.36264 -0.492182,-0.008 -0.802027,-0.0717 -1.183177,-0.24382 -0.284005,-0.12827 -0.696169,-0.3096 -0.915915,-0.40293 -0.522219,-0.22181 -1.032829,-0.72584 -1.277261,-1.26079 -0.168481,-0.36873 -0.190403,-0.56104 -0.155947,-1.36791 0.02204,-0.51637 0.04207,-1.55901 0.0445,-2.31698 0.0051,-1.58388 -0.07571,-1.7975 -0.772784,-2.04382 -0.344293,-0.12165 -0.459032,-0.11837 -1.093937,0.0313 -0.390114,0.092 -0.794124,0.23763 -0.897799,0.32368 -0.118061,0.098 -0.292223,0.52483 -0.466087,1.14227 -0.152676,0.54219 -0.492175,1.61954 -0.754445,2.3941 -0.262266,0.77456 -0.602117,1.91528 -0.755218,2.53493 -0.307783,1.24567 -0.709235,2.14537 -1.346503,3.01765 -0.579502,0.79322 -0.79682,0.86196 -2.845059,0.89995 -0.887207,0.0165 -1.668812,0.0129 -1.736896,-0.008 z"
       id="path339" /><path
       style="fill:#000000;stroke-width:0.0938862"
       d="m 88.644505,131.5179 c 0.269165,-0.83874 0.270826,-2.31308 0.0032,-2.81074 l -0.199147,-0.37027 -0.21191,0.88664 c -0.267377,1.11875 -0.341015,2.11244 -0.190368,2.56891 0.166845,0.50555 0.379199,0.40811 0.598267,-0.27454 z"
       id="path337" /><path
       style="fill:#000000;stroke-width:0.0938862"
       d="m 109.55618,187.37316 c -0.59637,-0.21702 -1.12475,-0.57329 -1.24647,-0.84045 -0.16523,-0.36265 0.0357,-0.84865 0.67472,-1.6317 0.86837,-1.06417 0.9812,-1.28403 0.95068,-1.85247 -0.0129,-0.24084 -0.49675,-0.7845 -0.69814,-0.7845 -0.16709,0 -0.31217,0.41324 -0.72254,2.05804 -0.38127,1.52815 -0.4858,1.76688 -0.81375,1.85837 -0.1454,0.0406 -1.00373,0.0738 -1.90738,0.0738 -2.16723,0 -3.09825,-0.25737 -3.09825,-0.85647 0,-0.20584 0.6307,-0.88058 1.48423,-1.58785 0.50086,-0.41503 0.86101,-1.13078 0.86204,-1.71316 0.001,-0.63314 -0.15912,-1.0079 -0.83028,-1.9416 -0.95002,-1.32165 -0.99515,-1.39888 -1.23638,-2.11597 l -0.23688,-0.70419 -0.58007,-0.28166 c -0.77993,-0.37871 -1.00619,-0.61518 -1.43586,-1.5007 -0.20085,-0.41391 -0.44109,-0.84082 -0.53387,-0.94868 -0.240403,-0.27949 -0.699527,-0.57842 -1.006856,-0.65555 -0.144866,-0.0364 -0.51019,-0.28632 -0.811827,-0.55546 -0.610704,-0.54493 -1.034749,-0.71228 -2.38712,-0.94211 -1.289457,-0.21915 -1.750668,-0.37905 -2.161903,-0.74957 l -0.373028,-0.3361 -1.032751,0.0588 c -1.560733,0.0889 -2.196979,0.20612 -2.793117,0.51474 -0.296917,0.15371 -0.782779,0.40544 -1.079693,0.55938 -0.750648,0.38919 -1.450188,0.54798 -2.95322,0.67037 -1.424291,0.11596 -1.746087,0.0596 -2.016554,-0.35319 -0.131613,-0.20087 -0.127106,-0.24695 0.05422,-0.55427 0.250248,-0.42414 0.248612,-0.62141 -0.0089,-1.0688 -0.190223,-0.33051 -0.196578,-0.38952 -0.08,-0.74276 0.125991,-0.38176 0.124639,-0.38638 -0.264389,-0.90164 -0.633407,-0.83894 -0.715132,-1.30456 -0.249492,-1.42143 0.294667,-0.0739 0.575464,0.0897 1.086964,0.63332 0.28926,0.30745 0.501543,0.45317 0.657203,0.45115 0.452918,-0.006 0.766616,-0.43894 0.732821,-1.01168 -0.03554,-0.6024 0.215455,-0.74971 0.670691,-0.39362 0.394883,0.30888 0.584871,0.24166 0.930967,-0.3294 0.623191,-1.02827 0.791221,-1.65005 0.798967,-2.95663 0.0068,-1.14453 -1.88e-4,-1.18623 -0.283153,-1.68505 -0.409187,-0.7214 -0.525551,-0.77284 -0.908547,-0.40164 -0.171852,0.16657 -0.355049,0.30285 -0.407108,0.30285 -0.05206,0 -0.237807,-0.10562 -0.412785,-0.23471 -0.44183,-0.32597 -0.638581,-0.30222 -0.805479,0.0972 -0.217297,0.52006 -0.810983,0.68317 -0.997401,0.27403 -0.154816,-0.33978 -0.46306,-0.2734 -0.564887,0.12165 -0.07203,0.27945 -0.109846,0.30513 -0.449345,0.30513 -0.29432,0 -0.403208,-0.0496 -0.5285,-0.24083 -0.08679,-0.13247 -0.394071,-0.36104 -0.682841,-0.50793 -0.28877,-0.14689 -0.703411,-0.42104 -0.921429,-0.60921 -0.521921,-0.45047 -1.040468,-1.49819 -1.116874,-2.25665 -0.08781,-0.87171 0.05664,-1.23647 0.785583,-1.98365 0.34859,-0.35732 0.89797,-0.95209 1.220844,-1.32172 0.787616,-0.90169 1.62561,-1.34201 2.554036,-1.34201 0.860931,0 1.38259,0.20208 2.313812,0.89636 0.437344,0.32606 0.994364,0.66499 1.23782,0.75319 0.809414,0.29324 1.435629,0.59546 2.237925,1.08007 1.110185,0.67058 1.277151,0.70461 2.042994,0.41635 0.34409,-0.12952 0.740836,-0.23456 0.881661,-0.23342 0.337132,0.003 0.959365,0.29327 1.194908,0.55798 0.223379,0.25104 0.813491,0.56659 1.059584,0.56659 0.256405,0 0.538255,-0.35581 0.716374,-0.90435 0.20151,-0.62057 0.443096,-0.85272 0.744485,-0.71541 0.22879,0.10425 0.529816,0.63006 0.5323,0.9298 0.0035,0.41182 0.09412,0.43587 1.7028,0.45163 1.36727,0.0134 1.68347,0.0489 2.89619,0.32525 1.74492,0.39761 3.35199,0.48162 4.72591,0.24704 1.06148,-0.18123 1.42946,-0.15431 3.20749,0.23464 1.94145,0.4247 2.75814,0.50881 4.88208,0.50275 2.41696,-0.007 3.2589,-0.11554 7.55785,-0.97534 8.33808,-1.66765 7.61037,-1.55183 9.71723,-1.54647 1.67228,0.004 2.01127,0.0328 3.09825,0.26078 3.42412,0.71818 6.17818,1.7789 7.34679,2.82959 0.64361,0.57865 1.0028,1.17093 1.3755,2.26812 0.1732,0.50991 0.495,1.37073 0.7151,1.91292 0.3189,0.78558 0.40226,1.10975 0.41043,1.59607 l 0.0103,0.61026 -0.28166,-0.007 c -0.15491,-0.004 -0.34503,-0.0251 -0.42249,-0.0469 -0.0964,-0.0272 -0.13289,0.0194 -0.11563,0.148 0.10669,0.79487 0.12469,2.8704 0.0318,3.66276 -0.15925,1.35794 -0.55256,3.22859 -0.76527,3.63979 -0.32196,0.6224 -0.2396,0.85786 0.71219,2.03587 0.99587,1.23258 1.12841,1.97827 0.54568,3.07024 -0.1883,0.35284 -0.48396,1.00018 -0.65705,1.43854 -0.78909,1.9984 -1.94939,2.85196 -3.88269,2.85621 -2.05226,0.005 -3.04761,-0.79025 -2.13394,-1.70392 0.18612,-0.18612 0.62496,-0.51073 0.97521,-0.72136 0.35025,-0.21063 0.69025,-0.48859 0.75555,-0.61767 0.14574,-0.28806 0.15534,-1.04803 0.0194,-1.53754 -0.12868,-0.46342 -0.74719,-1.14574 -0.9634,-1.06277 -0.19164,0.0735 -0.19522,0.27856 -0.0152,0.87196 0.29164,0.96138 0.14952,1.30806 -0.88515,2.15927 -0.79239,0.65187 -1.14464,1.25694 -1.11945,1.92291 0.0208,0.54941 -0.11857,0.79034 -0.65335,1.12955 -1.11267,0.70578 -4.09019,1.24198 -5.17272,0.93152 -0.65871,-0.18892 -0.94229,-0.73141 -0.62163,-1.1892 0.0755,-0.1078 0.37678,-0.30939 0.66951,-0.448 0.29274,-0.1386 0.67102,-0.35785 0.84062,-0.4872 0.69232,-0.52807 1.45083,-2.05463 1.45083,-2.91992 0,-0.36704 -0.0922,-0.59308 -0.57338,-1.40614 -0.31536,-0.53284 -0.61216,-0.96881 -0.65955,-0.96881 -0.0474,0 -0.37997,0.14796 -0.73905,0.3288 -1.61405,0.81282 -3.56747,1.38822 -5.92802,1.74615 -1.83479,0.2782 -4.2607,0.27652 -6.65238,-0.005 -1.86804,-0.2196 -4.24067,-0.34998 -4.62295,-0.25403 -0.26944,0.0676 -0.35304,0.24491 -0.64884,1.37587 -0.306,1.17 -0.28928,2.37148 0.0448,3.21775 0.39874,1.01008 0.30688,1.76882 -0.29507,2.43712 -0.52914,0.58746 -1.00409,0.75712 -2.22355,0.79432 -0.77773,0.0237 -1.13525,-0.006 -1.44781,-0.11955 z"
       id="path329" /><path
       style="fill:#000000;stroke-width:0.0938862"
       d="m 62.183098,186.9562 c -0.206549,-0.0448 -0.699785,-0.0792 -1.096073,-0.0765 -0.541321,0.004 -0.909102,-0.0579 -1.478711,-0.24761 -0.714433,-0.23793 -0.758182,-0.26811 -0.758182,-0.52297 0,-0.14877 0.0845,-0.48485 0.187774,-0.74686 0.103275,-0.26201 0.187774,-0.53874 0.187774,-0.61494 0,-0.0762 -0.249513,-0.38096 -0.554472,-0.67721 -0.460788,-0.44762 -0.581461,-0.63382 -0.714202,-1.10195 -0.107319,-0.37849 -0.270087,-0.67842 -0.496085,-0.91412 -0.295931,-0.30864 -0.344694,-0.4288 -0.405706,-0.99983 -0.07013,-0.65635 -0.211666,-0.9904 -0.769118,-1.81522 -0.164723,-0.24372 -0.447368,-0.68313 -0.628099,-0.97645 -0.338413,-0.54924 -1.245282,-1.25616 -1.611437,-1.25616 -0.09572,0 -0.421379,0.22739 -0.723694,0.50531 -0.302311,0.27793 -0.946239,0.77093 -1.430948,1.09557 -1.152497,0.7719 -1.877867,1.52128 -2.748007,2.83901 -0.390919,0.592 -0.859905,1.25489 -1.042193,1.47307 -0.386598,0.46273 -0.446222,0.64902 -0.406437,1.26996 0.02771,0.43237 0.05262,0.47116 0.451808,0.7034 0.648711,0.37741 0.852063,1.05951 0.389645,1.30699 -0.24259,0.12983 -2.505088,0.31669 -3.330069,0.27503 -0.548841,-0.0277 -0.766716,-0.0849 -1.058222,-0.27783 -0.80373,-0.53188 -0.786002,-1.04496 0.06941,-2.00861 0.760339,-0.85654 0.920222,-1.2246 0.922813,-2.12433 0.0014,-0.53154 0.06264,-0.87739 0.236778,-1.34003 0.129093,-0.34297 0.234713,-0.70553 0.234713,-0.80569 0,-0.39179 0.419587,-1.27718 0.799273,-1.68658 0.423462,-0.45661 0.676116,-1.0089 0.578228,-1.26399 -0.0548,-0.1428 -0.292517,-0.15079 -2.760758,-0.0928 -3.855295,0.0906 -5.652342,-0.1119 -8.035402,-0.90525 -1.889761,-0.62912 -2.618497,-1.06631 -3.92476,-2.35452 -0.62197,-0.61338 -1.204439,-1.11524 -1.294375,-1.11524 -0.08993,0 -0.265939,0.11033 -0.391126,0.24518 -0.125182,0.13485 -0.461498,0.40489 -0.747366,0.60011 -0.674462,0.4606 -1.145847,0.98928 -1.483107,1.66339 -0.451963,0.9034 -0.528184,1.39746 -0.525456,3.40616 0.0025,1.74982 0.01388,1.86354 0.259879,2.57156 0.455278,1.31028 0.967867,1.96566 1.93984,2.48017 0.796562,0.42165 1.19334,1.19224 0.787368,1.52917 -0.210144,0.1744 -2.408393,0.23561 -3.269888,0.091 -0.36447,-0.0612 -0.892534,-0.15111 -1.173476,-0.19988 -0.869068,-0.15089 -1.165183,-0.64451 -0.756663,-1.26137 0.35156,-0.53083 0.291981,-0.63824 -1.173579,-2.11559 -1.513652,-1.52582 -1.511807,-1.52204 -1.214226,-2.48484 0.192444,-0.62264 0.29602,-2.43513 0.144508,-2.52876 -0.151133,-0.0934 -1.443808,0.72229 -2.05354,1.2958 -0.717623,0.675 -0.983548,1.30331 -1.37857,3.25718 -0.183324,0.90677 -0.333477,1.77287 -0.333668,1.92467 -1.96e-4,0.1518 -0.08407,0.41331 -0.186394,0.58113 -0.153464,0.2517 -0.244205,0.30513 -0.518224,0.30513 -0.287997,0 -0.438373,-0.10194 -1.130426,-0.76635 -0.611222,-0.58679 -0.874486,-0.92225 -1.123666,-1.43177 -0.632534,-1.2934 -0.51469,-2.12755 0.367805,-2.60346 0.25303,-0.13646 0.492271,-0.30567 0.531652,-0.37603 0.03938,-0.0704 0.101958,-0.62098 0.139064,-1.22359 0.05595,-0.90856 0.03887,-1.20132 -0.10006,-1.71456 -0.137424,-0.50768 -0.148222,-0.68338 -0.06009,-0.97756 0.142531,-0.47572 0.325298,-0.62578 1.453637,-1.19359 l 0.954093,-0.48012 0.0054,-1.05857 c 0.0052,-1.02367 -0.0036,-1.06957 -0.259531,-1.39189 -0.312612,-0.39336 -0.330976,-0.46794 -0.386488,-1.56961 -0.03927,-0.77932 -0.414027,-2.29728 -0.621505,-2.51742 -0.09623,-0.1021 -0.908477,0.82031 -1.317068,1.49572 -0.756574,1.25064 -0.943823,2.48378 -0.516532,3.40166 0.323716,0.69537 0.317478,1.30858 -0.01735,1.70651 -0.21812,0.25922 -0.294138,0.29151 -0.577973,0.24545 -0.575251,-0.0934 -1.162926,-0.83519 -1.289705,-1.62801 -0.0853,-0.53343 0.110435,-1.12718 0.580713,-1.76158 0.228261,-0.30792 0.456473,-0.71984 0.507138,-0.91539 0.05066,-0.19555 0.133894,-0.51673 0.184953,-0.71374 0.05106,-0.19701 0.374341,-0.82019 0.718407,-1.38483 0.344062,-0.56464 0.83375,-1.47023 1.088188,-2.01242 1.009587,-2.15135 1.211306,-2.52848 1.780979,-3.32964 0.325281,-0.45745 0.992781,-1.23892 1.483338,-1.73661 0.896008,-0.90905 1.068115,-1.02272 2.534931,-1.67431 0.335645,-0.1491 0.842632,-0.47179 1.126636,-0.71709 1.100899,-0.95084 1.676885,-1.17233 3.802399,-1.46216 0.774561,-0.10561 1.889512,-0.28113 2.477666,-0.39004 0.778986,-0.14424 1.25064,-0.18225 1.7369,-0.13999 0.694402,0.0603 3.501489,0.69974 5.16259,1.17593 1.454258,0.41688 2.281536,0.52058 4.142476,0.51924 2.546985,-0.002 4.628085,-0.24497 8.9192,-1.04206 1.990551,-0.36974 2.532596,-0.43696 3.567681,-0.44234 2.387422,-0.0124 2.670972,0.13379 7.933395,4.09112 4.702138,3.53599 5.30752,3.9644 5.498512,3.89111 0.08106,-0.0311 0.134668,-0.18098 0.134668,-0.37652 0,-0.41353 0.222272,-0.65831 0.474979,-0.52306 0.23181,0.12406 0.444352,0.53913 0.616878,1.20471 0.158389,0.61104 0.781286,1.69201 1.221178,2.11923 0.166376,0.16158 0.552843,0.41344 0.858816,0.55968 l 0.556313,0.26589 1.104809,-0.59567 c 1.061402,-0.57227 1.121878,-0.62157 1.539297,-1.25474 0.447884,-0.67938 0.719348,-0.84414 0.944285,-0.5731 0.133095,0.16037 0.183849,1.19248 0.07731,1.57213 -0.0602,0.21453 -0.676446,0.7923 -1.385855,1.29933 -0.249421,0.17827 -0.641206,1.49115 -0.714439,2.3941 -0.064,0.7891 0.08549,1.30629 0.457322,1.58223 0.412008,0.30575 0.7977,0.2338 1.698945,-0.31693 0.817448,-0.49953 1.163466,-0.58829 1.430253,-0.36688 0.174141,0.14453 0.150203,0.48589 -0.09795,1.39671 -0.298798,1.09672 -0.06688,1.79042 0.597571,1.78738 0.475749,-0.002 1.00821,-0.33562 1.496765,-0.93732 0.489557,-0.60293 0.713692,-0.68569 0.87834,-0.32433 0.22652,0.49715 -0.528869,3.3974 -1.201193,4.6119 -0.2118,0.3826 -0.382463,0.88679 -0.503022,1.48611 -0.208557,1.03675 -0.519427,1.60575 -1.212541,2.21934 -0.623336,0.55182 -0.768493,0.60238 -1.149843,0.40051 -0.234109,-0.12393 -0.541328,-0.17017 -1.163121,-0.17507 -0.774483,-0.006 -0.903718,-0.0353 -1.549123,-0.3497 -0.404528,-0.19707 -1.043719,-0.40879 -1.502183,-0.49757 -1.28724,-0.24926 -1.947228,-0.62595 -3.324283,-1.89734 -1.000062,-0.92333 -1.29083,-1.25688 -1.743478,-2.00005 -0.825393,-1.35516 -1.177504,-1.51587 -2.391268,-1.09142 -0.749847,0.26222 -0.935829,0.23385 -1.209606,-0.18444 -0.322761,-0.49314 -0.487335,-0.52358 -1.4738,-0.27257 -0.478386,0.12171 -0.926361,0.27788 -0.995503,0.34702 -0.181223,0.18122 -0.352919,2.74418 -0.228811,3.41554 0.05187,0.28062 0.224773,0.80743 0.384216,1.17071 0.200314,0.4564 0.319528,0.92589 0.385778,1.51928 0.197993,1.77338 0.715873,2.59044 2.338009,3.68867 0.788585,0.53391 0.997774,0.87273 0.788571,1.27729 -0.252132,0.48756 -1.353109,0.81636 -2.153174,0.64303 z"
       id="path331" /></g><metadata
     id="metadata365"><rdf:RDF><cc:License
         rdf:about="http://creativecommons.org/publicdomain/zero/1.0/"><cc:permits
           rdf:resource="http://creativecommons.org/ns#Reproduction" /><cc:permits
           rdf:resource="http://creativecommons.org/ns#Distribution" /><cc:permits
           rdf:resource="http://creativecommons.org/ns#DerivativeWorks" /></cc:License><cc:Work
         rdf:about=""><cc:license
           rdf:resource="http://creativecommons.org/publicdomain/zero/1.0/" /><dc:title>Animal silhouettes</dc:title></cc:Work></rdf:RDF></metadata></svg>
